<?xml version="1.0" encoding="UTF-8"?>
<svg id="Layer_2" data-name="Layer 2" xmlns="http://www.w3.org/2000/svg" viewBox="0 0 115.16 97.06">
  <g id="Layer_1-2" data-name="Layer 1">
    <path d="M18.03,1.64V0c1.96.18,3.09,3.2,4.05.6,1.6,1.5,3.3-.41,3.87-.41.48,0,1.23,1.07,1.87,1.23.61.15,1.09-.76,1.84-.75.93.02,3.17,1.04,4.41.97l.59-1.09c.33.39.73.82,1.23.95,2.59.66,3.01.8,4.78-.94l.26,1.08,4.61-1.11c1.15,3.04,1.64-.46,2.21-.51.23-.02,2.95,1.38,4.43,1.56,1.21.15,2.82-.71,4.24.08l.61-1.1,1.64,1.63L60.85,0c.9,2.67,5.33,1.2,8,1.39,1.07.07,2.49.95,3.4.82.39-.05.3-.94.6-1.04.26-.09,2.39.68,3,.46l-.26-1.09c1.12-.18,1.12,1.31,1.44,1.53.41.28,3.34-1.05,4.95-.4,3.85,1.56,4.24.05,8.13-.3,2.32-.21,7.83,2.1,8.98-.32,1.24-.17,4.61,2.57,5.14-.5l1.08,1.08.28-1.09h.53s.81,1.41.81,1.41l1.6-.22.59.99,1.1-1.37c2.3,1.98,2.06,4.89,3.81,7.1l-1.05.49c.52.86.58,1.8.54,2.77-.11,3.43-1.17,8.02-.48,11.47.04.22,2.64.63-.11,1.61,3.2,3.05.3,7.02.14,9.92-.05.87,1.38,5.23,1.35,6.33-.03.9-.52,2.05-.91,2.88l1.07.5-1.62,2.19,1.68,1.15c.17,1.04-.96,1.97-1.03,2.75-.06.68.76,1.23.78,1.81.04,1.65-.59,3.55.13,5.22l-1.01.25c1.86,1.65-.49,2.69.48,4.64l-1.02.51c.63,1.84,1.25,4.84,1.49,6.71.21,1.61-.97,3.36.69,3.65-.11,1.7-2.12,2.54-2.12,2.72-.02,1.06,1.14,3.22,2.13,3.85l-1.08.27.02,1.07,1.09.29-1.66,2.73c2.21.57.34,2.88.17,4.27-.24,1.98,1.14,4.4-1.81,5.54l2.18,1.36c-2.55-1.03-4.8.97-6.86,1.04-.11,0-.47-1.73-1.87-1.03l-.27,1.64c-.56-1.1-.54-1.16-1.76-1.49s-6.79-.75-6.93.35l-1.95-.5-.25,1.08-6.52-2.2-2.24,2.09-1.05-.03c-2.22-2.73-7.06-.37-9.85-.39-2.45-.02-3.71-2.54-4.9.54-1.06-3.33-5.97.2-6.26,0-.4-.28-.35-2.28-3.29-1.08l.55,1.08c-.67-.39-2.04.07-2.38-.04-1.02-.33.66-.41-2.25-.61-1.59-.11-2.74-1.35-3.28.65l-2.2-1.64-.6,1.13-3.7-.04-.57-1.01c-2.17,1.05-6.28-1.33-6.58,2.11-.95-1.83-1.15-2.13-3.26-2.22-2.54-.11-3.73.4-6.56.59-1.96.13-4.15.16-6.05-.42l-.79,1.51c-1.57-.2-.35-1.98-.54-2.18-.89.81-2.07.03-2.47.1-.34.06-.24.76-.36.79-1.6.34-4.59,1-5.63-.34l-.28,1.63c-.81-.21-1.01-1.14-1.9-1.38-1.9-.52-7.27-.19-9.55-.51l.55-1.1-2.22-2.23c2.14-3.16.59-6.6,1.63-9.82l-1.02-.45c.44-1.34,1.06-3.61,1-4.98-.08-2.04-2.01-3.86.61-4.88-2.75-.69-.16-3.87-.21-4.89-.02-.48-1.07-1.64-1.21-3.02-.5-5.16,1.3-14.14,1.46-19.93-2.84-4.57,2.43-13.76-.59-17.93,1.36-1.59.48-3.15.5-4.92.05-5.26.45-9.9.1-15.31-.01-.18,1.92-.68,1.03-2.96l3.81.55-.54-2.18c1.28.7,3.21-.15,4.01-.03.4.06.29,1.03.69,1.09,2.79.46,3.78-3.26,6.75.02ZM8.57,5.67c-.48-.36-3.44-2.58-3.62-2.39-.36,4.28.7,8.61.07,13.04l1.02.32c.07.5-.96,0-1.11.62-.41,1.62.59,6.08.58,8.11-.03,6.81-.29,14.33-.47,21.23-.03,1.27-.04,3.75,1,4.4-2.36.69.85,3.76-1.09,5.17l1.09.27c-.93.29-1.22,4.43-1.09,4.65.04.07,1.29-.72,1.63.28-1.52.4-1.57,3.38-1.6,4.89-.09,3.97-.29,6.59-.54,10.41-.02.23.98.16,1.08.59.28,1.24-.97,3.31-.01,4.77l-1.1.58.9,1.64-1.44,1.91h1.09s-1.1.82-1.1.82c2.43.81.92,2.67,1.65,4.63.92.11.49-1.31,1.42-1.6,1.17-.37,2.99,1.16,4.34.03l.46,1c1.78-.76,3.59-1.1,5.44-.47l.34-1.12c1.02,1.01,2.63,1.81,4.09,1.55.31-.06.23-.82.53-.88,2.26-.45,4,.91,5.39.82.94-.06,3.99-1.37,5.08-1.37,3.17,0,7.71.42,11.65.68,1.25.08,2.29,1.68,3.53-.26,1.01,2.83,1.42-.02,1.69-.04.63-.06,1.41.51,2.12.49,1.65-.06,3.72-.29,5.41-.45l.59,1.1,1.09-2.2.34,1,1.48-.37.09,1.01,1.36-1.09,1.08,1.09,1.36-1.09.83,1.63.53-1.09c1,1.03,1.75.94,3.01.54l-.55-1.08c2.07-.89,2.72,1.03,3.51,1.13,3.15.4,7.7-1.45,10.41.49l2.16-2.17c.95.57,1.92,1.52,2.96,1.86,2.26.74,3.44-1.87,6.47-.57.13.05.22.74.52.89.41.21,7.66-.46,9.01-.64.82-.11,1.44-.92,1.79-1,.24-.06,2.14,3.37,3.84,0,.71-1.41-1.45-1.71-1.41-2.99l1.1-.28-1.09-1.62h1.09s0-1.09,0-1.09l-1.09-.27,1.13-.61-.19-2.85c-1.05-.06-1.08-.11-.94-1.18l1.08-.27-1.64-1.09c2.38-.44.35-3.92.56-5.39.06-.41.88-.29,1-.6.22-.59-.42-6.16-.94-7.1l1.03-.52c-2.02-1.77-.77-4.15-.61-6.59l-1.03-.5,1.58-3.86c-1.09.15-1.05-2.31-.93-3.24.03-.27,1.55-.16,1-2.11-2.1-.69-.26-.9-.21-2.22.06-1.75-2.11-7.06.21-8.26.15-2.5-2.14-1.94-.92-4.95l-1.27-.98,1.46-1.06.06-2.41c-2.66-.56,0-1.27.03-1.42.35-1.64-1.22-5.29.64-6.57l-1.09-.27,1.01-.78c-.77-3.84,0-7.36-1.07-11.16-2.42.9-5.89-1.17-6.76,1.58-1.94-2.57-6.51-1.29-9.57-1.27-1.63,0-2.97-1.25-3.55.76-.77.03-4.14-1.41-4.89-1.43-.89-.03-2.21,1.3-3.52.3v1.64s-2.51-2.18-2.51-2.18c-1.59,1.17-4.12-.16-5.35,0-.39.05-.38,1.03-.61,1.09-1.66.47-1.07-1.68-3-1.11l-.27,2.19c-.44.03-.22-.76-.68-1.08-3.31-2.33-2.64-.15-3.22-.02-1.29.3-4.85-1.97-5.38.55-.56-.31-.64-1.36-.9-1.53-.33-.22-6.79.36-7.83.4-1.78.07-6.2.61-7.11.5-1.63-.2-4.08-1.59-5.47-1.49-.71.05-1.23.84-1.61.84-.28,0-3.45-1.02-4.53-.2-.42.32-.37,1.71-1.46,1.5l-.28-1.64c-1.91.6-3.35.2-5.15-.58l-.84,1.13c.22-1.61-1.88-1.05-3-1.62l-.28,1.63c-.84.56-5.45-1.09-6.24-1.12-1.21-.04-3.22,1.08-3.88.98-.51-.08-.62-1.02-.97-1.29Z"/>
  </g>
</svg>