<?xml version="1.0" encoding="UTF-8"?>
<svg id="Layer_2" xmlns="http://www.w3.org/2000/svg" version="1.1" viewBox="0 0 115.2 97.1">
  <!-- Generator: Adobe Illustrator 30.0.0, SVG Export Plug-In . SVG Version: 2.1.1 Build 123)  -->
  <g id="Layer_1-2">
    <path d="M18,1.6V0c2,.2,3.1,3.2,4.1.6,1.6,1.5,3.3-.4,3.9-.4s1.2,1.1,1.9,1.2c.6.1,1.1-.8,1.8-.8.9,0,3.2,1,4.4,1l.6-1.1c.3.4.7.8,1.2.9,2.6.7,3,.8,4.8-.9l.3,1.1,4.6-1.1c1.2,3,1.6-.5,2.2-.5C48,0,50.7,1.4,52.2,1.6c1.2.1,2.8-.7,4.2,0l.6-1.1,1.6,1.6,2.2-2.2c.9,2.7,5.3,1.2,8,1.4,1.1,0,2.5.9,3.4.8.4,0,.3-.9.6-1,.3,0,2.4.7,3,.5l-.3-1.1c1.1-.2,1.1,1.3,1.4,1.5.4.3,3.3-1,4.9-.4,3.8,1.6,4.2,0,8.1-.3,2.3-.2,7.8,2.1,9-.3,1.2-.2,4.6,2.6,5.1-.5l1.1,1.1.3-1.1h.5l.8,1.4,1.6-.2.6,1,1.1-1.4c2.3,2,2.1,4.9,3.8,7.1l-1.1.5c.5.9.6,1.8.5,2.8-.1,3.4-1.2,8-.5,11.5,0,.2,2.6.6-.1,1.6,3.2,3,.3,7,.1,9.9,0,.9,1.4,5.2,1.3,6.3,0,.9-.5,2-.9,2.9l1.1.5-1.6,2.2,1.7,1.2c.2,1-1,2-1,2.8,0,.7.8,1.2.8,1.8,0,1.7-.6,3.5.1,5.2l-1,.2c1.9,1.7-.5,2.7.5,4.6l-1,.5c.6,1.8,1.2,4.8,1.5,6.7.2,1.6-1,3.4.7,3.7-.1,1.7-2.1,2.5-2.1,2.7,0,1.1,1.1,3.2,2.1,3.8l-1.1.3v1.1s1.1.3,1.1.3l-1.7,2.7c2.2.6.3,2.9.2,4.3-.2,2,1.1,4.4-1.8,5.5l2.2,1.4c-2.6-1-4.8,1-6.9,1-.1,0-.5-1.7-1.9-1l-.3,1.6c-.6-1.1-.5-1.2-1.8-1.5s-6.8-.8-6.9.3l-1.9-.5-.2,1.1-6.5-2.2-2.2,2.1h-1.1c-2.2-2.8-7.1-.4-9.8-.4-2.4,0-3.7-2.5-4.9.5-1.1-3.3-6,.2-6.3,0-.4-.3-.3-2.3-3.3-1.1l.5,1.1c-.7-.4-2,0-2.4,0-1-.3.7-.4-2.2-.6-1.6-.1-2.7-1.3-3.3.7l-2.2-1.6-.6,1.1h-3.7s-.6-1.1-.6-1.1c-2.2,1.1-6.3-1.3-6.6,2.1-1-1.8-1.2-2.1-3.3-2.2-2.5-.1-3.7.4-6.6.6-2,.1-4.1.2-6.1-.4l-.8,1.5c-1.6-.2-.4-2-.5-2.2-.9.8-2.1,0-2.5,0-.3,0-.2.8-.4.8-1.6.3-4.6,1-5.6-.3l-.3,1.6c-.8-.2-1-1.1-1.9-1.4-1.9-.5-7.3-.2-9.6-.5l.5-1.1L0,91.3c2.1-3.2.6-6.6,1.6-9.8l-1-.4c.4-1.3,1.1-3.6,1-5,0-2-2-3.9.6-4.9-2.8-.7-.2-3.9-.2-4.9,0-.5-1.1-1.6-1.2-3-.5-5.2,1.3-14.1,1.5-19.9-2.8-4.6,2.4-13.8-.6-17.9,1.4-1.6.5-3.1.5-4.9,0-5.3.5-9.9,0-15.3,0-.2,1.9-.7,1-3l3.8.5-.5-2.2c1.3.7,3.2-.2,4,0,.4,0,.3,1,.7,1.1,2.8.5,3.8-3.3,6.8,0h0ZM8.6,5.7c-.5-.4-3.4-2.6-3.6-2.4-.4,4.3.7,8.6,0,13l1,.3c0,.5-1,0-1.1.6-.4,1.6.6,6.1.6,8.1,0,6.8-.3,14.3-.5,21.2,0,1.3,0,3.8,1,4.4-2.4.7.8,3.8-1.1,5.2l1.1.3c-.9.3-1.2,4.4-1.1,4.7,0,0,1.3-.7,1.6.3-1.5.4-1.6,3.4-1.6,4.9,0,4-.3,6.6-.5,10.4,0,.2,1,.2,1.1.6.3,1.2-1,3.3,0,4.8l-1.1.6.9,1.6-1.4,1.9h1.1l-1.1.8c2.4.8.9,2.7,1.7,4.6.9.1.5-1.3,1.4-1.6,1.2-.4,3,1.2,4.3,0l.5,1c1.8-.8,3.6-1.1,5.4-.5l.3-1.1c1,1,2.6,1.8,4.1,1.6.3,0,.2-.8.5-.9,2.3-.4,4,.9,5.4.8.9,0,4-1.4,5.1-1.4,3.2,0,7.7.4,11.7.7,1.2,0,2.3,1.7,3.5-.3,1,2.8,1.4,0,1.7,0,.6,0,1.4.5,2.1.5,1.7,0,3.7-.3,5.4-.4l.6,1.1,1.1-2.2.3,1,1.5-.4v1c0,0,1.5-1.1,1.5-1.1l1.1,1.1,1.4-1.1.8,1.6.5-1.1c1,1,1.8.9,3,.5l-.6-1.1c2.1-.9,2.7,1,3.5,1.1,3.2.4,7.7-1.4,10.4.5l2.2-2.2c.9.6,1.9,1.5,3,1.9,2.3.7,3.4-1.9,6.5-.6.1,0,.2.7.5.9.4.2,7.7-.5,9-.6.8-.1,1.4-.9,1.8-1,.2,0,2.1,3.4,3.8,0,.7-1.4-1.4-1.7-1.4-3l1.1-.3-1.1-1.6h1.1v-1.1l-1.1-.3,1.1-.6-.2-2.8c-1.1,0-1.1-.1-.9-1.2l1.1-.3-1.6-1.1c2.4-.4.3-3.9.6-5.4,0-.4.9-.3,1-.6.2-.6-.4-6.2-.9-7.1l1-.5c-2-1.8-.8-4.2-.6-6.6l-1-.5,1.6-3.9c-1.1.2-1.1-2.3-.9-3.2,0-.3,1.6-.2,1-2.1-2.1-.7-.3-.9-.2-2.2,0-1.8-2.1-7.1.2-8.3.2-2.5-2.1-1.9-.9-5l-1.3-1,1.5-1.1v-2.4c-2.6-.6,0-1.3,0-1.4.3-1.6-1.2-5.3.6-6.6l-1.1-.3,1-.8c-.8-3.8,0-7.4-1.1-11.2-2.4.9-5.9-1.2-6.8,1.6-1.9-2.6-6.5-1.3-9.6-1.3-1.6,0-3-1.2-3.6.8-.8,0-4.1-1.4-4.9-1.4-.9,0-2.2,1.3-3.5.3v1.6l-2.5-2.2c-1.6,1.2-4.1-.2-5.3,0-.4,0-.4,1-.6,1.1-1.7.5-1.1-1.7-3-1.1l-.3,2.2c-.4,0-.2-.8-.7-1.1-3.3-2.3-2.6-.2-3.2,0-1.3.3-4.8-2-5.4.5-.6-.3-.6-1.4-.9-1.5-.3-.2-6.8.4-7.8.4-1.8,0-6.2.6-7.1.5-1.6-.2-4.1-1.6-5.5-1.5-.7,0-1.2.8-1.6.8s-3.5-1-4.5-.2c-.4.3-.4,1.7-1.5,1.5l-.3-1.6c-1.9.6-3.4.2-5.1-.6l-.8,1.1c.2-1.6-1.9-1-3-1.6l-.3,1.6c-.8.6-5.4-1.1-6.2-1.1-1.2,0-3.2,1.1-3.9,1-.5,0-.6-1-1-1.3h0Z"/>
  </g>
  <g id="Layer_1-21" data-name="Layer_1-2">
    <path d="M25.1,15.1v-1.2c1.6.1,2.4,2.3,3.2.4,1.3,1.1,2.6-.3,3.1-.3s1,.8,1.5.9c.5.1.9-.6,1.5-.5.7,0,2.5.8,3.5.7l.5-.8c.3.3.6.6,1,.7,2.1.5,2.4.6,3.8-.7l.2.8,3.6-.8c.9,2.2,1.3-.3,1.7-.4.2,0,2.3,1,3.5,1.1,1,.1,2.2-.5,3.4,0l.5-.8,1.3,1.2,1.7-1.6c.7,2,4.2.9,6.3,1,.8,0,2,.7,2.7.6.3,0,.2-.7.5-.8.2,0,1.9.5,2.4.3l-.2-.8c.9-.1.9,1,1.1,1.1.3.2,2.6-.8,3.9-.3,3,1.1,3.4,0,6.4-.2,1.8-.2,6.2,1.5,7.1-.2,1-.1,3.6,1.9,4.1-.4l.9.8.2-.8h.4l.6,1,1.3-.2.5.7.9-1c1.8,1.5,1.6,3.6,3,5.2l-.8.4c.4.6.5,1.3.4,2,0,2.5-.9,5.9-.4,8.4,0,.2,2.1.5,0,1.2,2.5,2.2.2,5.1.1,7.3,0,.6,1.1,3.8,1.1,4.6,0,.7-.4,1.5-.7,2.1l.8.4-1.3,1.6,1.3.8c.1.8-.8,1.4-.8,2,0,.5.6.9.6,1.3,0,1.2-.5,2.6.1,3.8l-.8.2c1.5,1.2-.4,2,.4,3.4l-.8.4c.5,1.3,1,3.5,1.2,4.9.2,1.2-.8,2.5.5,2.7,0,1.2-1.7,1.9-1.7,2,0,.8.9,2.4,1.7,2.8l-.9.2v.8s.9.2.9.2l-1.3,2c1.7.4.3,2.1.1,3.1-.2,1.5.9,3.2-1.4,4.1l1.7,1c-2-.8-3.8.7-5.4.8,0,0-.4-1.3-1.5-.8l-.2,1.2c-.4-.8-.4-.8-1.4-1.1s-5.4-.5-5.5.3l-1.5-.4-.2.8-5.2-1.6-1.8,1.5h-.8c-1.8-2-5.6-.3-7.8-.3-1.9,0-2.9-1.9-3.9.4-.8-2.4-4.7.1-5,0-.3-.2-.3-1.7-2.6-.8l.4.8c-.5-.3-1.6,0-1.9,0-.8-.2.5-.3-1.8-.4-1.3,0-2.2-1-2.6.5l-1.7-1.2-.5.8h-2.9s-.5-.8-.5-.8c-1.7.8-5-1-5.2,1.5-.8-1.3-.9-1.6-2.6-1.6-2,0-3,.3-5.2.4-1.6,0-3.3.1-4.8-.3l-.6,1.1c-1.2-.1-.3-1.5-.4-1.6-.7.6-1.6,0-2,0-.3,0-.2.6-.3.6-1.3.2-3.6.7-4.5-.2l-.2,1.2c-.6-.2-.8-.8-1.5-1-1.5-.4-5.8-.1-7.6-.4l.4-.8-1.8-1.6c1.7-2.3.5-4.8,1.3-7.2l-.8-.3c.3-1,.8-2.6.8-3.6,0-1.5-1.6-2.8.5-3.6-2.2-.5-.1-2.8-.2-3.6,0-.4-.8-1.2-1-2.2-.4-3.8,1-10.4,1.2-14.6-2.2-3.3,1.9-10.1-.5-13.1,1.1-1.2.4-2.3.4-3.6,0-3.9.4-7.3,0-11.2,0-.1,1.5-.5.8-2.2l3,.4-.4-1.6c1,.5,2.5-.1,3.2,0,.3,0,.2.8.5.8,2.2.3,3-2.4,5.3,0h0ZM17.6,18.1c-.4-.3-2.7-1.9-2.9-1.8-.3,3.1.6,6.3,0,9.6l.8.2c0,.4-.8,0-.9.5-.3,1.2.5,4.5.5,5.9,0,5-.2,10.5-.4,15.6,0,.9,0,2.7.8,3.2-1.9.5.7,2.8-.9,3.8l.9.2c-.7.2-1,3.2-.9,3.4,0,0,1-.5,1.3.2-1.2.3-1.2,2.5-1.3,3.6,0,2.9-.2,4.8-.4,7.6,0,.2.8.1.9.4.2.9-.8,2.4,0,3.5l-.9.4.7,1.2-1.1,1.4h.9l-.9.6c1.9.6.7,2,1.3,3.4.7,0,.4-1,1.1-1.2.9-.3,2.4.8,3.4,0l.4.7c1.4-.6,2.8-.8,4.3-.3l.3-.8c.8.7,2.1,1.3,3.2,1.1.2,0,.2-.6.4-.6,1.8-.3,3.2.7,4.3.6.7,0,3.2-1,4-1,2.5,0,6.1.3,9.2.5,1,0,1.8,1.2,2.8-.2.8,2.1,1.1,0,1.3,0,.5,0,1.1.4,1.7.4,1.3,0,2.9-.2,4.3-.3l.5.8.9-1.6.3.7,1.2-.3v.7c0,0,1.1-.8,1.1-.8l.9.8,1.1-.8.7,1.2.4-.8c.8.8,1.4.7,2.4.4l-.4-.8c1.6-.7,2.2.8,2.8.8,2.5.3,6.1-1.1,8.2.4l1.7-1.6c.8.4,1.5,1.1,2.3,1.4,1.8.5,2.7-1.4,5.1-.4.1,0,.2.5.4.7.3.2,6.1-.3,7.1-.5.6,0,1.1-.7,1.4-.7.2,0,1.7,2.5,3,0,.6-1-1.1-1.3-1.1-2.2l.9-.2-.9-1.2h.9v-.8l-.9-.2.9-.4-.2-2.1c-.8,0-.9,0-.7-.9l.9-.2-1.3-.8c1.9-.3.3-2.9.4-3.9,0-.3.7-.2.8-.4.2-.4-.3-4.5-.7-5.2l.8-.4c-1.6-1.3-.6-3-.5-4.8l-.8-.4,1.3-2.8c-.9.1-.8-1.7-.7-2.4,0-.2,1.2-.1.8-1.5-1.7-.5-.2-.7-.2-1.6,0-1.3-1.7-5.2.2-6.1.1-1.8-1.7-1.4-.7-3.6l-1-.7,1.2-.8v-1.8c-2.1-.4,0-.9,0-1,.3-1.2-1-3.9.5-4.8l-.9-.2.8-.6c-.6-2.8,0-5.4-.8-8.2-1.9.7-4.7-.9-5.4,1.2-1.5-1.9-5.2-.9-7.6-.9-1.3,0-2.4-.9-2.8.6-.6,0-3.3-1-3.9-1-.7,0-1.7,1-2.8.2v1.2l-2-1.6c-1.3.9-3.3-.1-4.2,0-.3,0-.3.8-.5.8-1.3.3-.8-1.2-2.4-.8l-.2,1.6c-.3,0-.2-.6-.5-.8-2.6-1.7-2.1-.1-2.5,0-1,.2-3.8-1.4-4.3.4-.4-.2-.5-1-.7-1.1-.3-.2-5.4.3-6.2.3-1.4,0-4.9.4-5.6.4-1.3-.1-3.2-1.2-4.3-1.1-.6,0-1,.6-1.3.6s-2.7-.7-3.6-.1c-.3.2-.3,1.3-1.2,1.1l-.2-1.2c-1.5.4-2.7.1-4.1-.4l-.7.8c.2-1.2-1.5-.8-2.4-1.2l-.2,1.2c-.7.4-4.3-.8-4.9-.8-1,0-2.5.8-3.1.7-.4,0-.5-.7-.8-.9h0Z"/>
  </g>
</svg>