<?xml version="1.0" encoding="UTF-8"?>
<svg id="Layer_2" data-name="Layer 2" xmlns="http://www.w3.org/2000/svg" viewBox="0 0 110.64 100.98">
  <g id="Layer_1-2" data-name="Layer 1">
    <g>
      <path d="M57.68.12c-.06,1.96,2.66,3.84,4.39,3.24l.03,1.63,1.08-.56.08,2.13c.42.11,1.03-.04,1.36.21,2.85,2.13,4.54,3.15,7.08,6.03,1.73,1.96,2.88,5.43,6.2,3.07-.43,2.64,2.33,2.64,2.19,4.91l1.36-1.08c1.05,1.03.18,1.94,1.37,3.26.67-.14.85-2.36,1.62-.26.48,1.32-1.3.34-1.08,1.35,2.29-.68,2.29,1.17,2.85,1.55.3.21.97-.44,1.8.04,1.5.86,3.61,4.62,5.28,5.92,1.35-.85,1.3,1.67,2.91,2.15l.78-.38c-.17,1.55.02,1.77,1.57,1.68-.7,1.15,2.83,3.38,3.9,2.67v2.73s1.54-.48,1.54-.48c1.24,3.05,4.94,2.63,6.64,5.38l-1.09.27,1.09,4.65c-1.94-.7-3.13.22-5.05-1.08-.95-.64-.43-2.12-2.58-1.11l.33-1.66c-2.21-.45-2.56-1.74-3.06-3.79l-.81,1.08-1.83-1.18.46-1c-1.98.64-1.95-.73-2.61-1.07-.4-.21-1.45.17-1.71-.06-.16-.15-.2-3.29-1.95-3.77-.79-.06.05,2.86-1.35,1.62-.49-.43-2.29-4.29-3.55-5.46-.72-.67-1.89-.97-2.77-1.61-1.05-.76-.31-2.32-2.96-1.11l.55-1.63c-2.06-.03-3.15-.57-3.28-2.73l-1.08,1.08.05-2.47-.94-.67c-3.08,1.33-2.46-1.02-4.3-2.84-.99-.98-4.71-2.88-5.23-3.5-.49-.59-.35-1.63-.56-1.89-.09-.11-1.91.4-2.66-.61l-.54,1.64c.24-3.73-3.38-4.8-5.24-7.66-1.24.48-2.79.85-3.91,1.53-1.24.76-1.5,2.23-3.41,2.63s-2.21-1.36-2.27,1.19l-2.63.68c-.23.92.74.34.96.61.07.08-.39,1.54.05,2.06l-1.3.61-.8-1.09c.22,1.85-2.87,3.94-4.36,2.72l-.03,2.7c-1.47-.12-3.94.9-4.91,1.96-.48.52.02,1.21-.05,1.27-.32.26-1.75.22-2.65.89-2.63,1.94-4.3,2.96-6.97,4.75-.36.24-.56,2.02-1.76,2.88-1.13.8-2.8.66-3.59,1.32-1.34,1.13.28,2.63-2.4,1.93-1.52,3.05-5.27,5.63-8.62,6.4l-.1,2.62c-3.54-.12-5.32,3.81-9.19,1.57-.04-1.6.18-1.55,1.54-2.37l-1.09-.54c1.3-.92,2.33-.13,2.21-2.45,1.61.92,2.64-3.07,5.34-2.29l.08-2.62c3.2.49,3.16-.24,4.37-2.73l1.08,1.08c.36-1.83,1.19-3.97,3.28-3.27l-.28-1.09,1.89-.02c.27-4.4,1.63-2.89,4.48-4.37,1.86-.97,2.53-3.16,4.12-4.34.73-.54,4.43-1.83,4.89-2.89.71-1.64-.9-2.27,2.31-2.08-.4-2.45,1.71-1.48,2.63-2.25.49-.41.41-1.77,1.24-2.33.41-.28,2.01.2,2.89-.77s-.44-2.22,2.55-1.68l-.55-1.08c2.88.59,2.19-1.23,2.9-2.01.38-.41,2.38-2.5,2.54-2.6,1.08-.67,2.72.7,3.28-3.35.59-.51,3.67.81,4.62-.76.33-.54-1.12-1.5,1.35-1.06Z"/>
      <path d="M43.22,56.04c.1.21.9.21.88.45l-2.16,2.19c.97,1.06,1.74,2.91-.02,3.27l1.09,1.1-1.07,1.06,1.09,1.65-1.69,2.17,1.17.62-.58,2.94,1.63-.54-1.63,1.64,1.09,1.63h-1.64c2.05,2.02.12,6.18.53,8.36.09.49,1.55.15,1.12,1.73-.13.49-1.35-.09-1.1.81h1.64c-1.24,1.32-.58,2.31-.74,3.47-.09.65-.72,1.26-.72,1.72,0,1.15,2.14,1.89-.73,2.46-.16.23,3.18,1.96.61,2.97l.49,1.09-1.64.29,1.08,1.08c-.38-.02-.87.07-1.11.38-.84,1.12.7,2.67-.8,2.36-1.8-.37-3.62-3.78-2.45-5.46l-2.18,1.09c-.38-1.04.82-1.83.86-2.47.02-.29-.67-.76-.62-1.06.16-1.21,1.04-2.59.9-4.39-.09-1.11-1.18-.76-1.15-1.07.09-.81,1.52-1.38,1.61-1.74.34-1.35-1.8-2.59.02-3.98l-1-.07-.06-.74c2.21-1.61-.16-2.84.52-4.66-3.96,1.74.27-4.04.55-5.18l-1.09.27,1.08-2.47c-2.19-.93-1.26-1.56-1.63-3.53l1.65-.28-1.1-.6.48-1.05c-1.52-.47-.48-.9-.67-1.51-1.13-3.54-.05-1.2.21-2.39.13-.6-.52-1.99-.01-2.9l-1.63-.27c1.67-3.38,2.32-6.91,2.73-10.64,6.15.4,4.7,7.04,6.21,10.18Z"/>
      <path d="M69.43,50.53c2.23,2.39.41,1.53.34,3.22-.04,1.02.91,2.01.96,2.86.06,1.08-1.42,1.57-1.42,2.06,0,.46,2.11,2.74.47,4.42l1.07.5-1.1,2.45,1.63-.54c.19,1.49-2.59,3.01-.04,3.29l.03,1.06c-1.68-.04-1.41,3.71-1.33,5.17.09,1.63,1.01,5.03,1.21,6.7.21,1.76.6,4.16-1.49,3.41l1.09,1.35-1.09.28v1.08s1.09.27,1.09.27l-1.09.81h1.64c.17.14-.76,1.13-.85,1.63-.33,1.75.29,4.84.25,5.11-.05.33-1.73,2.04-2.17,2.8-.37.63.23,1.34-.24,1.38-4.15.31-4.02-4.19-4.48-7.53-.21-1.57,1.02-2.69-.72-3.12l1.66-2.98-1.51-.1-.44-1.29c.03-1.38,1.35-1.34,1.34-1.58-.05-1.01-.68-2.46-.72-3.85-.04-1.82.5-6.08.28-7.56-.08-.54-1.78-.05-1.13-1.43l1.67-.29c.63-2.23-2.39-6.77.5-7.35l-1.1-.85.68-9.78c1.56-.35.2-2.38,1.36-3.01,1.85-1.02,2.64.32,3.67,1.42Z"/>
      <path d="M92.09,51.32c.09,1.67.1,4.18,2.19,4.38l-1.09,3.8h2.18c-2.6,2.65-.62,4.02-.58,6.31.03,1.63-.59,4.02-.36,5.84.09.74,1.28,3.1,1.25,3.38-.08.74-1.18,2.13-1.41,3.86-.3,2.33,1.44,4.03,1.45,5.96s-1.25,3.72-.31,6.47c.17.48,1.04.29,1.05.62.05,1.2-1.88,1.82-1.99,2.71-.02.17.39,3.16.45,3.32.14.41,1.58-.01.98,1.34l-1.94-.5-1.03,1.1-3.57-.6.41-2.5-1.5-.79,1.08-1.9-1.63-.55c-.1-1.16.91-2.3,1-3.26.27-2.78-1.26-8.88.59-10.33l-.42-1.88,1.02-.33-1.65-.28c-.33-.99.86-3.1.87-3.54.04-4.37-1.27-11.52-1.28-15.91,0-1.08,1.23-2.79,1.38-3.16.06-.15-.43-.84-.18-1.36.06-.12,1.63-1.59,1.94-1.85.39-.34.28-.54,1.09-.34Z"/>
      <path d="M17.6,56.57c.27.28.82.2.84.24.15.27-.8,1.12-.84,1.85-.02.39.29,7.31.42,7.67.1.3,1.01.23,1.02.56.03.67-1.04,2.74-1.15,4.35-.21,3.12,1.5,6.03.98,9.81-.04.26-.7.21-.81.54-.53,1.58.88,1.28.94,1.37.21.34-.89.84-.92,1.35-.06,1.03.29,2.2.08,4.6-.02.2.59,3.56,1.38,2.77-1.98,1.61-.2,3.96-.56,5.59-.02.1-1.33,1.51-1.43,1.52-.75.06-1.49-.59-2.06-.59-.18,0-1.11,1.83-3.03,1.11,2.38-2.47-.54-4.36-.54-4.63s2.64-1.68,1.37-3.58c-.32-.47-2.14-.38-1.36-1.6.06-.09.83.14.97-.26.61-1.76-.02-4.95.66-6.83l-1.65-.29c1.14-1.51.55-2.53.78-4.09.53-3.65.93-6.79.3-10.61-.24-1.44-2.47-2.36.56-3.03l-1.63-2.44c2.03-.92,2.53-2.95,1.09-4.62l1.09-.28c-2.32-1.6.68-2.82,2.04-2.05.78.44.94,1.02,1.46,1.57Z"/>
    </g>
  </g>
</svg>