<svg width="590" height="260" viewBox="0 0 590 260" fill="none" xmlns="http://www.w3.org/2000/svg">
<g clip-path="url(#clip0_244_924)">
<line x1="-422.496" y1="3.18258" x2="428.861" y2="-848.174" stroke="black" stroke-opacity="0.2"/>
<line x1="-418.961" y1="6.71774" x2="432.396" y2="-844.639" stroke="black" stroke-opacity="0.2"/>
<line x1="-415.425" y1="10.2529" x2="435.931" y2="-841.104" stroke="black" stroke-opacity="0.2"/>
<line x1="-411.89" y1="13.789" x2="439.467" y2="-837.568" stroke="black" stroke-opacity="0.2"/>
<line x1="-408.354" y1="17.3242" x2="443.003" y2="-834.032" stroke="black" stroke-opacity="0.2"/>
<line x1="-404.818" y1="20.8593" x2="446.538" y2="-830.497" stroke="black" stroke-opacity="0.2"/>
<line x1="-401.283" y1="24.3955" x2="450.073" y2="-826.961" stroke="black" stroke-opacity="0.2"/>
<line x1="-397.748" y1="27.9306" x2="453.609" y2="-823.426" stroke="black" stroke-opacity="0.2"/>
<line x1="-394.212" y1="31.4668" x2="457.145" y2="-819.89" stroke="black" stroke-opacity="0.2"/>
<line x1="-390.677" y1="35.0019" x2="460.68" y2="-816.355" stroke="black" stroke-opacity="0.2"/>
<line x1="-387.141" y1="38.5371" x2="464.216" y2="-812.82" stroke="black" stroke-opacity="0.2"/>
<line x1="-383.606" y1="42.0732" x2="467.751" y2="-809.283" stroke="black" stroke-opacity="0.2"/>
<line x1="-380.07" y1="45.6084" x2="471.287" y2="-805.748" stroke="black" stroke-opacity="0.2"/>
<line x1="-376.534" y1="49.1445" x2="474.822" y2="-802.212" stroke="black" stroke-opacity="0.2"/>
<line x1="-372.999" y1="52.6796" x2="478.358" y2="-798.677" stroke="black" stroke-opacity="0.2"/>
<line x1="-369.463" y1="56.2148" x2="481.893" y2="-795.142" stroke="black" stroke-opacity="0.2"/>
<line x1="-365.928" y1="59.7509" x2="485.429" y2="-791.606" stroke="black" stroke-opacity="0.2"/>
<line x1="-362.392" y1="63.2861" x2="488.965" y2="-788.071" stroke="black" stroke-opacity="0.2"/>
<line x1="-358.856" y1="66.8213" x2="492.5" y2="-784.535" stroke="black" stroke-opacity="0.2"/>
<line x1="-355.321" y1="70.3574" x2="496.035" y2="-780.999" stroke="black" stroke-opacity="0.2"/>
<line x1="-351.786" y1="73.8925" x2="499.571" y2="-777.464" stroke="black" stroke-opacity="0.2"/>
<line x1="-348.25" y1="77.4287" x2="503.107" y2="-773.928" stroke="black" stroke-opacity="0.2"/>
<line x1="-344.715" y1="80.9638" x2="506.642" y2="-770.393" stroke="black" stroke-opacity="0.2"/>
<line x1="-341.179" y1="84.499" x2="510.178" y2="-766.858" stroke="black" stroke-opacity="0.2"/>
<line x1="-337.644" y1="88.0351" x2="513.713" y2="-763.322" stroke="black" stroke-opacity="0.2"/>
<line x1="-334.108" y1="91.5703" x2="517.249" y2="-759.786" stroke="black" stroke-opacity="0.2"/>
<line x1="-330.572" y1="95.1064" x2="520.784" y2="-756.25" stroke="black" stroke-opacity="0.2"/>
<line x1="-327.037" y1="98.6416" x2="524.319" y2="-752.715" stroke="black" stroke-opacity="0.2"/>
<line x1="-323.501" y1="102.177" x2="527.856" y2="-749.18" stroke="black" stroke-opacity="0.2"/>
<line x1="-319.966" y1="105.713" x2="531.391" y2="-745.644" stroke="black" stroke-opacity="0.2"/>
<line x1="-316.43" y1="109.248" x2="534.926" y2="-742.109" stroke="black" stroke-opacity="0.2"/>
<line x1="-312.895" y1="112.784" x2="538.462" y2="-738.573" stroke="black" stroke-opacity="0.2"/>
<line x1="-309.359" y1="116.319" x2="541.997" y2="-735.037" stroke="black" stroke-opacity="0.2"/>
<line x1="-305.824" y1="119.854" x2="545.533" y2="-731.502" stroke="black" stroke-opacity="0.2"/>
<line x1="-302.288" y1="123.391" x2="549.068" y2="-727.966" stroke="black" stroke-opacity="0.2"/>
<line x1="-298.752" y1="126.926" x2="552.604" y2="-724.431" stroke="black" stroke-opacity="0.2"/>
<line x1="-295.217" y1="130.461" x2="556.14" y2="-720.896" stroke="black" stroke-opacity="0.2"/>
<line x1="-291.682" y1="133.997" x2="559.675" y2="-717.36" stroke="black" stroke-opacity="0.2"/>
<line x1="-288.146" y1="137.532" x2="563.211" y2="-713.824" stroke="black" stroke-opacity="0.2"/>
<line x1="-284.61" y1="141.068" x2="566.746" y2="-710.288" stroke="black" stroke-opacity="0.2"/>
<line x1="-281.075" y1="144.603" x2="570.281" y2="-706.753" stroke="black" stroke-opacity="0.2"/>
<line x1="-277.539" y1="148.139" x2="573.818" y2="-703.218" stroke="black" stroke-opacity="0.2"/>
<line x1="-274.004" y1="151.675" x2="577.353" y2="-699.682" stroke="black" stroke-opacity="0.2"/>
<line x1="-270.468" y1="155.21" x2="580.888" y2="-696.147" stroke="black" stroke-opacity="0.2"/>
<line x1="-266.933" y1="158.746" x2="584.424" y2="-692.611" stroke="black" stroke-opacity="0.2"/>
<line x1="-263.397" y1="162.281" x2="587.959" y2="-689.075" stroke="black" stroke-opacity="0.2"/>
<line x1="-259.862" y1="165.816" x2="591.495" y2="-685.54" stroke="black" stroke-opacity="0.2"/>
<line x1="-256.326" y1="169.353" x2="595.03" y2="-682.004" stroke="black" stroke-opacity="0.2"/>
<line x1="-252.791" y1="172.888" x2="598.566" y2="-678.469" stroke="black" stroke-opacity="0.2"/>
<line x1="-249.255" y1="176.423" x2="602.102" y2="-674.934" stroke="black" stroke-opacity="0.2"/>
<line x1="-245.72" y1="179.959" x2="605.637" y2="-671.398" stroke="black" stroke-opacity="0.2"/>
<line x1="-242.184" y1="183.494" x2="609.172" y2="-667.863" stroke="black" stroke-opacity="0.2"/>
<line x1="-238.648" y1="187.03" x2="612.708" y2="-664.326" stroke="black" stroke-opacity="0.2"/>
<line x1="-235.113" y1="190.565" x2="616.243" y2="-660.791" stroke="black" stroke-opacity="0.2"/>
<line x1="-231.577" y1="194.101" x2="619.779" y2="-657.256" stroke="black" stroke-opacity="0.2"/>
<line x1="-228.042" y1="197.637" x2="623.315" y2="-653.72" stroke="black" stroke-opacity="0.2"/>
<line x1="-224.506" y1="201.172" x2="626.85" y2="-650.185" stroke="black" stroke-opacity="0.2"/>
<line x1="-220.971" y1="204.708" x2="630.386" y2="-646.649" stroke="black" stroke-opacity="0.2"/>
<line x1="-217.436" y1="208.243" x2="633.921" y2="-643.114" stroke="black" stroke-opacity="0.2"/>
<line x1="-213.899" y1="211.778" x2="637.457" y2="-639.578" stroke="black" stroke-opacity="0.2"/>
<line x1="-210.364" y1="215.314" x2="640.992" y2="-636.042" stroke="black" stroke-opacity="0.2"/>
<line x1="-206.829" y1="218.85" x2="644.528" y2="-632.507" stroke="black" stroke-opacity="0.2"/>
<line x1="-203.293" y1="222.385" x2="648.064" y2="-628.972" stroke="black" stroke-opacity="0.2"/>
<line x1="-199.758" y1="225.921" x2="651.599" y2="-625.436" stroke="black" stroke-opacity="0.2"/>
<line x1="-196.222" y1="229.456" x2="655.134" y2="-621.901" stroke="black" stroke-opacity="0.2"/>
<line x1="-192.687" y1="232.992" x2="658.67" y2="-618.365" stroke="black" stroke-opacity="0.2"/>
<line x1="-189.151" y1="236.527" x2="662.205" y2="-614.829" stroke="black" stroke-opacity="0.2"/>
<line x1="-185.615" y1="240.062" x2="665.741" y2="-611.294" stroke="black" stroke-opacity="0.2"/>
<line x1="-182.08" y1="243.599" x2="669.276" y2="-607.758" stroke="black" stroke-opacity="0.2"/>
<line x1="-178.544" y1="247.134" x2="672.812" y2="-604.223" stroke="black" stroke-opacity="0.2"/>
<line x1="-175.009" y1="250.67" x2="676.348" y2="-600.687" stroke="black" stroke-opacity="0.2"/>
<line x1="-171.474" y1="254.205" x2="679.883" y2="-597.152" stroke="black" stroke-opacity="0.2"/>
<line x1="-167.938" y1="257.74" x2="683.419" y2="-593.616" stroke="black" stroke-opacity="0.2"/>
<line x1="-164.402" y1="261.276" x2="686.954" y2="-590.08" stroke="black" stroke-opacity="0.2"/>
<line x1="-160.867" y1="264.811" x2="690.49" y2="-586.545" stroke="black" stroke-opacity="0.2"/>
<line x1="-157.331" y1="268.348" x2="694.026" y2="-583.009" stroke="black" stroke-opacity="0.2"/>
<line x1="-153.796" y1="271.883" x2="697.561" y2="-579.474" stroke="black" stroke-opacity="0.2"/>
<line x1="-150.26" y1="275.418" x2="701.096" y2="-575.939" stroke="black" stroke-opacity="0.2"/>
<line x1="-146.725" y1="278.954" x2="704.632" y2="-572.403" stroke="black" stroke-opacity="0.2"/>
<line x1="-143.189" y1="282.489" x2="708.168" y2="-568.867" stroke="black" stroke-opacity="0.2"/>
<line x1="-139.653" y1="286.024" x2="711.703" y2="-565.332" stroke="black" stroke-opacity="0.2"/>
<line x1="-136.118" y1="289.561" x2="715.238" y2="-561.796" stroke="black" stroke-opacity="0.2"/>
<line x1="-132.583" y1="293.096" x2="718.774" y2="-558.261" stroke="black" stroke-opacity="0.2"/>
<line x1="-129.047" y1="296.632" x2="722.31" y2="-554.725" stroke="black" stroke-opacity="0.2"/>
<line x1="-125.512" y1="300.167" x2="725.845" y2="-551.19" stroke="black" stroke-opacity="0.2"/>
<line x1="-121.976" y1="303.702" x2="729.381" y2="-547.655" stroke="black" stroke-opacity="0.2"/>
<line x1="-118.44" y1="307.238" x2="732.916" y2="-544.118" stroke="black" stroke-opacity="0.2"/>
<line x1="-114.905" y1="310.773" x2="736.452" y2="-540.583" stroke="black" stroke-opacity="0.2"/>
<line x1="-111.369" y1="314.31" x2="739.987" y2="-537.047" stroke="black" stroke-opacity="0.2"/>
<line x1="-107.834" y1="317.845" x2="743.523" y2="-533.512" stroke="black" stroke-opacity="0.2"/>
<line x1="-104.298" y1="321.38" x2="747.059" y2="-529.977" stroke="black" stroke-opacity="0.2"/>
<line x1="-100.763" y1="324.916" x2="750.594" y2="-526.441" stroke="black" stroke-opacity="0.2"/>
<line x1="-97.2271" y1="328.451" x2="754.13" y2="-522.906" stroke="black" stroke-opacity="0.2"/>
<line x1="-93.6914" y1="331.986" x2="757.665" y2="-519.37" stroke="black" stroke-opacity="0.2"/>
<line x1="-90.1563" y1="335.522" x2="761.2" y2="-515.834" stroke="black" stroke-opacity="0.2"/>
<line x1="-86.6206" y1="339.058" x2="764.736" y2="-512.299" stroke="black" stroke-opacity="0.2"/>
<line x1="-83.085" y1="342.594" x2="768.272" y2="-508.763" stroke="black" stroke-opacity="0.2"/>
<line x1="-79.5498" y1="346.129" x2="771.807" y2="-505.228" stroke="black" stroke-opacity="0.2"/>
<line x1="-76.0137" y1="349.664" x2="775.343" y2="-501.693" stroke="black" stroke-opacity="0.2"/>
<line x1="-72.4786" y1="353.2" x2="778.878" y2="-498.156" stroke="black" stroke-opacity="0.2"/>
<line x1="-68.9429" y1="356.735" x2="782.414" y2="-494.621" stroke="black" stroke-opacity="0.2"/>
<line x1="-65.4073" y1="360.271" x2="785.949" y2="-491.085" stroke="black" stroke-opacity="0.2"/>
<line x1="-61.8721" y1="363.807" x2="789.484" y2="-487.55" stroke="black" stroke-opacity="0.2"/>
<line x1="-58.336" y1="367.342" x2="793.021" y2="-484.015" stroke="black" stroke-opacity="0.2"/>
<line x1="-54.8008" y1="370.878" x2="796.556" y2="-480.479" stroke="black" stroke-opacity="0.2"/>
<line x1="-51.2652" y1="374.413" x2="800.091" y2="-476.944" stroke="black" stroke-opacity="0.2"/>
<line x1="-47.7295" y1="377.949" x2="803.627" y2="-473.407" stroke="black" stroke-opacity="0.2"/>
<line x1="-44.1944" y1="381.484" x2="807.162" y2="-469.872" stroke="black" stroke-opacity="0.2"/>
<line x1="-40.6587" y1="385.019" x2="810.698" y2="-466.337" stroke="black" stroke-opacity="0.2"/>
<line x1="-37.1231" y1="388.556" x2="814.234" y2="-462.801" stroke="black" stroke-opacity="0.2"/>
<line x1="-33.5879" y1="392.091" x2="817.769" y2="-459.266" stroke="black" stroke-opacity="0.2"/>
<line x1="-30.0518" y1="395.626" x2="821.305" y2="-455.731" stroke="black" stroke-opacity="0.2"/>
<line x1="-26.5166" y1="399.162" x2="824.84" y2="-452.195" stroke="black" stroke-opacity="0.2"/>
<line x1="-22.981" y1="402.697" x2="828.376" y2="-448.659" stroke="black" stroke-opacity="0.2"/>
<line x1="-19.4454" y1="406.233" x2="831.911" y2="-445.123" stroke="black" stroke-opacity="0.2"/>
<line x1="-15.9102" y1="409.769" x2="835.446" y2="-441.588" stroke="black" stroke-opacity="0.2"/>
<line x1="-12.3741" y1="413.304" x2="838.983" y2="-438.053" stroke="black" stroke-opacity="0.2"/>
<line x1="-8.8389" y1="416.84" x2="842.518" y2="-434.517" stroke="black" stroke-opacity="0.2"/>
<line x1="-5.30326" y1="420.375" x2="846.053" y2="-430.982" stroke="black" stroke-opacity="0.2"/>
<line x1="-1.76762" y1="423.911" x2="849.589" y2="-427.446" stroke="black" stroke-opacity="0.2"/>
<line x1="1.76754" y1="427.446" x2="853.124" y2="-423.91" stroke="black" stroke-opacity="0.2"/>
<line x1="5.30318" y1="430.981" x2="856.66" y2="-420.375" stroke="black" stroke-opacity="0.2"/>
<line x1="8.83883" y1="434.518" x2="860.195" y2="-416.839" stroke="black" stroke-opacity="0.2"/>
<line x1="12.3745" y1="438.053" x2="863.731" y2="-413.304" stroke="black" stroke-opacity="0.2"/>
<line x1="15.9101" y1="441.588" x2="867.267" y2="-409.769" stroke="black" stroke-opacity="0.2"/>
<line x1="19.4453" y1="445.124" x2="870.802" y2="-406.233" stroke="black" stroke-opacity="0.2"/>
<line x1="22.9809" y1="448.659" x2="874.338" y2="-402.697" stroke="black" stroke-opacity="0.2"/>
<line x1="26.5166" y1="452.195" x2="877.873" y2="-399.161" stroke="black" stroke-opacity="0.2"/>
<line x1="30.0517" y1="455.73" x2="881.408" y2="-395.626" stroke="black" stroke-opacity="0.2"/>
<line x1="33.5879" y1="459.266" x2="884.944" y2="-392.091" stroke="black" stroke-opacity="0.2"/>
<line x1="37.123" y1="462.802" x2="888.48" y2="-388.555" stroke="black" stroke-opacity="0.2"/>
<line x1="40.6587" y1="466.337" x2="892.015" y2="-385.02" stroke="black" stroke-opacity="0.2"/>
<line x1="44.1943" y1="469.873" x2="895.551" y2="-381.484" stroke="black" stroke-opacity="0.2"/>
<line x1="47.7295" y1="473.408" x2="899.086" y2="-377.948" stroke="black" stroke-opacity="0.2"/>
<line x1="51.2656" y1="476.943" x2="902.622" y2="-374.413" stroke="black" stroke-opacity="0.2"/>
<line x1="54.8007" y1="480.479" x2="906.157" y2="-370.877" stroke="black" stroke-opacity="0.2"/>
<line x1="58.3364" y1="484.015" x2="909.693" y2="-367.342" stroke="black" stroke-opacity="0.2"/>
<line x1="61.872" y1="487.551" x2="913.229" y2="-363.806" stroke="black" stroke-opacity="0.2"/>
<line x1="65.4072" y1="491.086" x2="916.764" y2="-360.271" stroke="black" stroke-opacity="0.2"/>
<line x1="68.9428" y1="494.621" x2="920.299" y2="-356.736" stroke="black" stroke-opacity="0.2"/>
<line x1="72.4785" y1="498.157" x2="923.835" y2="-353.199" stroke="black" stroke-opacity="0.2"/>
<line x1="76.0136" y1="501.692" x2="927.37" y2="-349.664" stroke="black" stroke-opacity="0.2"/>
<line x1="79.5498" y1="505.228" x2="930.906" y2="-346.129" stroke="black" stroke-opacity="0.2"/>
<line x1="83.0849" y1="508.764" x2="934.442" y2="-342.593" stroke="black" stroke-opacity="0.2"/>
<line x1="86.6206" y1="512.299" x2="937.977" y2="-339.058" stroke="black" stroke-opacity="0.2"/>
<line x1="90.1562" y1="515.835" x2="941.513" y2="-335.522" stroke="black" stroke-opacity="0.2"/>
<line x1="93.6914" y1="519.37" x2="945.048" y2="-331.987" stroke="black" stroke-opacity="0.2"/>
<line x1="97.2275" y1="522.905" x2="948.584" y2="-328.451" stroke="black" stroke-opacity="0.2"/>
<line x1="100.763" y1="526.441" x2="952.119" y2="-324.915" stroke="black" stroke-opacity="0.2"/>
<line x1="104.298" y1="529.977" x2="955.655" y2="-321.38" stroke="black" stroke-opacity="0.2"/>
<line x1="107.834" y1="533.513" x2="959.191" y2="-317.844" stroke="black" stroke-opacity="0.2"/>
<line x1="111.369" y1="537.048" x2="962.726" y2="-314.309" stroke="black" stroke-opacity="0.2"/>
<line x1="114.905" y1="540.583" x2="966.261" y2="-310.774" stroke="black" stroke-opacity="0.2"/>
<line x1="118.44" y1="544.119" x2="969.797" y2="-307.238" stroke="black" stroke-opacity="0.2"/>
<line x1="121.976" y1="547.654" x2="973.333" y2="-303.702" stroke="black" stroke-opacity="0.2"/>
<line x1="125.512" y1="551.189" x2="976.868" y2="-300.167" stroke="black" stroke-opacity="0.2"/>
<line x1="129.047" y1="554.726" x2="980.403" y2="-296.631" stroke="black" stroke-opacity="0.2"/>
<line x1="132.582" y1="558.261" x2="983.939" y2="-293.096" stroke="black" stroke-opacity="0.2"/>
<line x1="136.118" y1="561.797" x2="987.475" y2="-289.56" stroke="black" stroke-opacity="0.2"/>
<line x1="139.653" y1="565.332" x2="991.01" y2="-286.025" stroke="black" stroke-opacity="0.2"/>
<line x1="143.189" y1="568.867" x2="994.546" y2="-282.489" stroke="black" stroke-opacity="0.2"/>
<line x1="146.725" y1="572.403" x2="998.081" y2="-278.953" stroke="black" stroke-opacity="0.2"/>
<line x1="150.26" y1="575.938" x2="1001.62" y2="-275.418" stroke="black" stroke-opacity="0.2"/>
<line x1="153.796" y1="579.475" x2="1005.15" y2="-271.882" stroke="black" stroke-opacity="0.2"/>
<line x1="157.331" y1="583.01" x2="1008.69" y2="-268.347" stroke="black" stroke-opacity="0.2"/>
<line x1="160.867" y1="586.545" x2="1012.22" y2="-264.812" stroke="black" stroke-opacity="0.2"/>
<line x1="164.402" y1="590.081" x2="1015.76" y2="-261.276" stroke="black" stroke-opacity="0.2"/>
<line x1="167.938" y1="593.616" x2="1019.29" y2="-257.74" stroke="black" stroke-opacity="0.2"/>
<line x1="171.474" y1="597.152" x2="1022.83" y2="-254.204" stroke="black" stroke-opacity="0.2"/>
<line x1="175.009" y1="600.687" x2="1026.37" y2="-250.669" stroke="black" stroke-opacity="0.2"/>
<line x1="178.544" y1="604.223" x2="1029.9" y2="-247.134" stroke="black" stroke-opacity="0.2"/>
<line x1="182.08" y1="607.759" x2="1033.44" y2="-243.598" stroke="black" stroke-opacity="0.2"/>
<line x1="185.615" y1="611.294" x2="1036.97" y2="-240.063" stroke="black" stroke-opacity="0.2"/>
<line x1="189.151" y1="614.829" x2="1040.51" y2="-236.528" stroke="black" stroke-opacity="0.2"/>
<line x1="192.686" y1="618.365" x2="1044.04" y2="-232.991" stroke="black" stroke-opacity="0.2"/>
<line x1="196.222" y1="621.9" x2="1047.58" y2="-229.456" stroke="black" stroke-opacity="0.2"/>
<line x1="199.758" y1="625.436" x2="1051.11" y2="-225.92" stroke="black" stroke-opacity="0.2"/>
<line x1="203.293" y1="628.972" x2="1054.65" y2="-222.385" stroke="black" stroke-opacity="0.2"/>
<line x1="206.829" y1="632.507" x2="1058.19" y2="-218.85" stroke="black" stroke-opacity="0.2"/>
<line x1="210.364" y1="636.043" x2="1061.72" y2="-215.314" stroke="black" stroke-opacity="0.2"/>
<line x1="213.9" y1="639.578" x2="1065.26" y2="-211.779" stroke="black" stroke-opacity="0.2"/>
<line x1="217.436" y1="643.114" x2="1068.79" y2="-208.242" stroke="black" stroke-opacity="0.2"/>
<line x1="220.971" y1="646.649" x2="1072.33" y2="-204.707" stroke="black" stroke-opacity="0.2"/>
<line x1="224.506" y1="650.185" x2="1075.86" y2="-201.172" stroke="black" stroke-opacity="0.2"/>
<line x1="228.042" y1="653.721" x2="1079.4" y2="-197.636" stroke="black" stroke-opacity="0.2"/>
<line x1="231.578" y1="657.256" x2="1082.93" y2="-194.101" stroke="black" stroke-opacity="0.2"/>
<line x1="235.113" y1="660.791" x2="1086.47" y2="-190.566" stroke="black" stroke-opacity="0.2"/>
<line x1="238.648" y1="664.327" x2="1090.01" y2="-187.03" stroke="black" stroke-opacity="0.2"/>
<line x1="242.184" y1="667.862" x2="1093.54" y2="-183.494" stroke="black" stroke-opacity="0.2"/>
<line x1="245.72" y1="671.398" x2="1097.08" y2="-179.958" stroke="black" stroke-opacity="0.2"/>
<line x1="249.255" y1="674.934" x2="1100.61" y2="-176.423" stroke="black" stroke-opacity="0.2"/>
<line x1="252.791" y1="678.469" x2="1104.15" y2="-172.888" stroke="black" stroke-opacity="0.2"/>
<line x1="256.326" y1="682.005" x2="1107.68" y2="-169.352" stroke="black" stroke-opacity="0.2"/>
<line x1="259.862" y1="685.54" x2="1111.22" y2="-165.817" stroke="black" stroke-opacity="0.2"/>
<line x1="263.397" y1="689.076" x2="1114.75" y2="-162.28" stroke="black" stroke-opacity="0.2"/>
<line x1="266.933" y1="692.611" x2="1118.29" y2="-158.745" stroke="black" stroke-opacity="0.2"/>
<line x1="270.468" y1="696.146" x2="1121.82" y2="-155.21" stroke="black" stroke-opacity="0.2"/>
<line x1="274.004" y1="699.683" x2="1125.36" y2="-151.674" stroke="black" stroke-opacity="0.2"/>
<line x1="277.54" y1="703.218" x2="1128.9" y2="-148.139" stroke="black" stroke-opacity="0.2"/>
<line x1="281.075" y1="706.754" x2="1132.43" y2="-144.603" stroke="black" stroke-opacity="0.2"/>
<line x1="284.61" y1="710.289" x2="1135.97" y2="-141.068" stroke="black" stroke-opacity="0.2"/>
<line x1="288.146" y1="713.824" x2="1139.5" y2="-137.532" stroke="black" stroke-opacity="0.2"/>
<line x1="291.682" y1="717.36" x2="1143.04" y2="-133.996" stroke="black" stroke-opacity="0.2"/>
<line x1="295.217" y1="720.895" x2="1146.57" y2="-130.461" stroke="black" stroke-opacity="0.2"/>
<line x1="298.753" y1="724.431" x2="1150.11" y2="-126.926" stroke="black" stroke-opacity="0.2"/>
<line x1="302.288" y1="727.967" x2="1153.64" y2="-123.39" stroke="black" stroke-opacity="0.2"/>
<line x1="305.824" y1="731.502" x2="1157.18" y2="-119.855" stroke="black" stroke-opacity="0.2"/>
<line x1="309.359" y1="735.038" x2="1160.72" y2="-116.319" stroke="black" stroke-opacity="0.2"/>
<line x1="312.894" y1="738.573" x2="1164.25" y2="-112.783" stroke="black" stroke-opacity="0.2"/>
<line x1="316.431" y1="742.108" x2="1167.79" y2="-109.248" stroke="black" stroke-opacity="0.2"/>
<line x1="319.966" y1="745.644" x2="1171.32" y2="-105.712" stroke="black" stroke-opacity="0.2"/>
<line x1="323.501" y1="749.18" x2="1174.86" y2="-102.177" stroke="black" stroke-opacity="0.2"/>
<line x1="327.037" y1="752.716" x2="1178.39" y2="-98.6408" stroke="black" stroke-opacity="0.2"/>
<line x1="330.572" y1="756.251" x2="1181.93" y2="-95.1057" stroke="black" stroke-opacity="0.2"/>
<line x1="334.108" y1="759.786" x2="1185.46" y2="-91.5705" stroke="black" stroke-opacity="0.2"/>
<line x1="337.644" y1="763.322" x2="1189" y2="-88.0344" stroke="black" stroke-opacity="0.2"/>
<line x1="341.179" y1="766.857" x2="1192.54" y2="-84.4992" stroke="black" stroke-opacity="0.2"/>
<line x1="344.715" y1="770.393" x2="1196.07" y2="-80.9641" stroke="black" stroke-opacity="0.2"/>
<line x1="348.25" y1="773.929" x2="1199.61" y2="-77.4279" stroke="black" stroke-opacity="0.2"/>
<line x1="351.786" y1="777.464" x2="1203.14" y2="-73.8928" stroke="black" stroke-opacity="0.2"/>
<line x1="355.321" y1="781" x2="1206.68" y2="-70.3567" stroke="black" stroke-opacity="0.2"/>
<line x1="358.856" y1="784.535" x2="1210.21" y2="-66.8215" stroke="black" stroke-opacity="0.2"/>
<line x1="362.393" y1="788.07" x2="1213.75" y2="-63.2863" stroke="black" stroke-opacity="0.2"/>
<line x1="365.928" y1="791.606" x2="1217.28" y2="-59.7502" stroke="black" stroke-opacity="0.2"/>
</g>
<defs>
<clipPath id="clip0_244_924">
<rect width="590" height="260" fill="white"/>
</clipPath>
</defs>
</svg>
