<?xml version="1.0" encoding="UTF-8"?>
<svg id="Layer_2" data-name="Layer 2" xmlns="http://www.w3.org/2000/svg" viewBox="0 0 120.54 202.42">
  <g id="Layer_1-2" data-name="Layer 1">
    <path d="M67.63.13l.02,1.62,4.3-1.04.56,1.36,1.67-.31.54,1.64.28-2.18c1.52.6.71,2.1.82,2.17.23.15,1.24-.51,2.04-.16,1.09.48,1.7,2.43,3.15,2.89l.81-1.08c-.44,2.09,1.1,1.77,2.73,2.18l-.55,2.17h2.72c-.63,2.53.89,2,1.67,2.97.42.51.31,1.37.69,1.79.24.26,1.46.09,1.72,1.16l1.37-.46c-1.03,1.84,1.13,3.58.55,5.44l1.63-.54c.07.85-.48,1.77-.18,2.6.41,1.1,2.12.03.18,3.4l1.63-.54c.44.91-1.32,1.81-1.08,2.17.03.05.7-.14,1.08.39,1.48,2.08.27,2.35.3,3.14.1,2.43.71,8.5-.5,10.49-.12.2-.61.21-.88.18,2.25,1.3-1.42,5.28,1.07,5.45l.02.81c-1.66.57-.51,2.41-2.73,1.92l.47,5.2c-2.86.94.61,6.07-3.2,5.14l-.07,2.11c-2.78.18-2.53,3.25-3.26,5.45l-1.32.07.28,1.64-1.63-1.09-.08,2.1c-2.05-.19-2.63,2.74-3.2,4.44l-1.59-.51c-.46,3.27-3.91,2.87-5.23,3.76-2.44,1.65-.88,3.7,0,1.1l1.37.02-.55,1.08c1.29,1.1,3.12-.63,3.27-.53.08.05-.12.88.27,1.02.28.1,5.24-.58,5.47-1.57l.81,1.08.31-1.11c1.37.75,4.33.33,4.85-1.06l3.02,1.09v-1.64c2.17,1.37,4.53,2.39,7.16,1.89,1.25-.24,3.28-2.7,3.22-.26,1.6-1.5,2.89-1.11,4.64.01l.5-1.01c3.09.62,6-.12,7.93,2.92l-1.09.81,1.62.82c-1.52,1.12-1.14,2.71-.49,4.22.24.56,1.45.24,1.06,1.77-.06.25-.86.22-.98.54-.52,1.47.74,4.38,1.51,5.73h-1.65c.68,1.3.09,2.49.26,3.83.1.76.79,1.56.83,1.93.02.16-1.64,0-1.11,2.69l1.67.56-1.63.27c-.38,1.11.91,2.26.9,3-.03,1.78-.22,1.53,0,3.9.18,1.98-.46,3.83.75,5.64h-1.65c.91,1.28-.75,2.77-.28,4.09.21.59,3.11,4,2.47,4.64h-1.65s.38.97.38.97l-.93.43c-.16,1.98,1.6,3.16,1.64,3.35.37,1.65-1.05,3.47-.98,4.15.06.61.73,1.08.75,1.73.02.75-1.91,3.39,1.32,3l-2.18,1.09c.95,1.49,1.49,4,1.36,5.74s-1.76,2.94-.79,4.73c.4.74,1.82.21.56,2.55l1.58.87-2.17.28c.37.8.63,1.56.61,2.47-.02.73-3.43,2.41,1.03,2.98l-1.09,1.91c1.13.51,1.27.44,1.09,1.9h-1.64c1.03,2.33.99,4.67.55,7.09h2.18s-2.13,3.03-2.13,3.03l1.58,1.33-2.13,1.44c-.1.6,1.16,1.79,1.31,2.85.25,1.7-1.91,3.69.28,4.17l-1.64,1.09c1.72.37,2.21,5.38.52,5.46l1.12,2.17c-2.11.55-.03,2.6,0,4.08-2.27-.69-1.73,2.1-3.01,2.72l-1.35-1.08-.83,1.63-1.1.02c-.42-1.79-.93-.5-1.64-.66-1.05-.24-3.29-1.11-4.36-.9-.16.03-1.35,1.52-2.71,1.58-.37.02-.02-1.08-1.07-1.18-2.67-.25-7.16,1.48-9.25,1.13-.42-.07-2.25-1.17-4.45-.98-.41.04-3.95,1.2-4.06,1.01l-.27-1.64c-2.04,3.46-7.21-1.24-8.47,2.17l-2.17-1.09v1.64s-4.91-1.64-4.91-1.64l1.09.81-1.09,1.36c-2.66-1-4.52-2.79-7.34-1.04l-.57-1.14c-.51-.09-.14.78-.36.93-.19.13-4.32.99-4.55.99-1.19.03-3.42-1.54-4.32-1.41-.47,1.85-1.38.5-1.98.85-.55.32-.38,2.16-2.66,1.31l-.04-1.58-1,.27.17.83c-1.54-.49-3.02-.85-4.63-.9-.92-.03-2.38.07-3.51.07-3.75,0-7.6-.24-9.85,1.94-2.43-2.22-4.07-.16-6.01-1.66l-.53,1.11h-1.1s-.53-1.1-.53-1.1c-2.08,1.51-7.16,1.31-9-.54l-.33,1.09-1.05-.48c-.56,2.14-5.14-.55-4.63,1.55h-.53c-.28-1.52-2.31-1.7-1.52-3.55.19-.44,1.44.09.97-1.35l-1.63.54c-.13-2.4,2.15-.19,1.61-2.17l-1.07-.02,1.09-1.63-2.18.54,2.19-4.1-1.12-.54c2.13-2.27-1.71-4.33.57-6.55-1.35-.66-1.84-3.48-.53-4.89l-1.66-1.65c1.55-.37.5-1.6,1.6-2.73-2.3-.51-1.2-4.16-.47-5.86.19-.44,1.09-.37,1.08-.68-.04-1.42-3.05-2.7-.57-4.36l-1.01-.51c-.21-2.67.58-4.75.85-7,.12-1.02-1.35-1.84.72-2.3-3.36-1.32,0-4.94-2.19-6.55,1.77-.39.57-2.86.61-4.36.02-.67.81-1.24.81-1.64,0-.45-1.33-1.61-.34-2.99l-2.18-.29c-.08-.65.85-1.17.94-1.7.26-1.49.79-8.2.26-9.78-.39-1.15-1.64-.32-.64-2.96,2.5,1.51.39-2.55.2-3.28-.24-.91,1.02-1.4-.75-1.89,2.14-1.48.44-3.89,2.19-4.37-2.09-.78-1.42-3.63-3.28-4.91,1.67-.35.06-2.26,2.18-1.36-.52-1.96.54-2.65-1.61-3.53l1.62-3.83-.97-.34c.76-1.88-1.51-4.02.97-5.11l-1.09-.54c2.55-3.55-3.29-8.95,3.19-10.72l-.42-.95c3.35-2.29,5.98.16,9.47-.6l.59-1.64c1.28.99,3.97.35,4.83.57.43.11.95,2.9,2.87-.63,1.95.51,7.12,2.33,8.11.04l1.37.02-.55,1.08,4.91-.55c-.57-2.4-3.3-.99-2.21-4.28-.54-.27-1.36-.28-1.81-.66-4.37-3.71-6.19-7.37-8.44-12.21l.45-1.03c-1.94-.93-.55-3.6-2.7-4.98.59-.71,1.6-.79,2.02-1.71.79-1.74-1.09-2.03-1.38-2.71-.12-.28-.1-5.61-.04-5.91.17-.74,2.31-.63,1.56-2.48-.61.35-1.53,2.35-2.17.55l.98-.27c-.41-.7-.18-1.02.04-1.65,2.07-6.01,3.53-11.99,7.29-17.88.66-1.04-.22-2.48,2.06-2.02l-.56-1.63,1.59-.04c-.8-1.66,1.5-2.18,1.98-3.26.3-.68-.35-1.53-.29-1.59.09-.08,1.27-.01,1.95-.53.76-.59.54-2.18,2.42-1.67l-.5-1.03c2.46-.87,4.95-2.74,6.47-4.71l2.75-.27-.55-1.08c2.43.17,3.22-1.7,4.91-1.91,1.45-1.49-1.61-.84-1.63-1.91,1.87-1.77,3.89-.61,5.87-1.46.79-.34.78-1.38,1.55-1.69.73-.29,3.44.61,4.58-.13-.19.62-1.13,1.24.25,1.07,1.22-.14,3.31-.32,4.3-.53.58-.12.02-1.67,1.44-1.1Z"/>
  </g>
</svg>