<?xml version="1.0" encoding="UTF-8"?>
<svg id="Layer_2" data-name="Layer 2" xmlns="http://www.w3.org/2000/svg" viewBox="0 0 99.65 97.02">
  <g id="Layer_1-2" data-name="Layer 1">
    <path id="_0" data-name="0" d="M73.04,6.65l-.53,2.14c2.66.91,5.25,2.6,6.8,4.94l.54-1.1c.17-.04.64,2.84,1.63,0,2.33.91,2.84,3.6,4.1,5.18,3.61,4.56,3.6,4.52,6.13,9.68,4.76,9.68,9.47,27.37,7.46,38.27-.74,4.03-1.42,2.36-2.9,2.61-.69.12-2.24,2.4-2.52,2.06l1.36-4.36c-1.21,1.69-3.27,2.75-4.64,4.08-2.69,2.63-2.45,4.72-2.82,8.38-2.65.85-4.33,1.87-5.9,4.17,3.04.93-2.52,6.34-3.96,6.95-1.76.74-4.66.32-6.19,1.48-1.08.82.63,2.25-2.08,3.33-4.56,1.83-8.19-.82-12.01-.61-2.39.13-5.47,1.95-7.9,2.5-4.88,1.1-15.67,1.22-19.39-2.45-.96-.95-1.33-2.39-2.3-3.3-2.4-2.25-6.18-2.91-8.53-4.7-1.83-1.39-4.04-3.99-5.75-6.07-1.3-1.58-1.51-3.9-3.83-4.49l-.54,1.64c-1.51-3.96-3.85-7.76-4.37-11.99l-1.07.54c-2.61-6.28-2.49-13.08-3.83-19.62l2.71,4.36c-.99-7.62-4.3-17.48,2.18-23.44l-1.08,8.72,1.63-2.18c.1,2.21.75,5.39,1.5,7.53.31.88-.28,1.46,1.23,1.19-1-1.45.19-2.75.03-4.06-.14-1.08-1.24-1.45-1.53-2.33-.23-.7-.73-4.02-.67-4.73.1-1.06,6.87-15.83,7.7-16.88,1.25-1.58,4.56-2.57,6.47-3.08l-.53-2.14C26.54,6.91,33.81.41,41.15.59c1.8.04,2.83.97,3.84,1.11.11.02.18-.93,1.4-1.27,4.5-1.24,6.75.5,10.6,1.26,1.26.25,2.61-.1,4.09.27,4.15,1.04,7.97,3.22,11.97,4.68ZM96.49,61.7c1.05-.24,1-1.05,1.08-1.9.09-.96-.25-13.17-2.72-10.64,2.22,4.68-.27,10.37-1.09,15.26l2.18-4.35.54,1.63Z"/>
  </g>
</svg>