<?xml version="1.0" encoding="UTF-8"?>
<svg id="Layer_2" data-name="Layer 2" xmlns="http://www.w3.org/2000/svg" viewBox="0 0 99.8 100.38">
  <g id="Layer_1-2" data-name="Layer 1">
    <path id="_1" data-name="1" d="M47.96,0c.86,2.76,3.74.54,1.09,4.64l1.44,1.87,2.94-3.24c1.25,1.34,4.61,2.32,4.91,0h.53c.38,2.19,2.63,2.96,4.36,3.81l1.38-3.83,2.42,1.92-2.15,2.99,2.95.53.76-1.21c-.33-.65-.22-1.61-.46-2.18-.31-.72-1.26-.06-1.06-.94,4.18-1.73,5.14,2.47,3.27,5.44.16.23,3.46.94,3.74,1.17.14.12-.35,2.13,1.98,2.65.89-.84-.84-1.49-.82-2.44,0-.36.94-2.46,1.63-2.46-.97,5.14.97,3.74,2.56,5.63.71.84,1.48,1.84,2.2,2.7,1.01,1.21,2.09,4.73,4.24,1.48.27.27.56.53.83.8.94.93,5.7,8.02,6.44,9.37,1.42,2.57,5.32,12.5,5.94,15.36s.92,7.85.63,10.67c-1.15,11.4-2.89,19.46-10.83,28.42-2.99,3.37-6.63,6.1-9.82,9.26,1.61-.13.84,3.47.29,4.09-.29.32-5.38,2.92-6.05,1.69-1.2,2.68-5.14-1.22-7.87-.94-2.13.22-5.78,2.55-8.58,2.93-8.78,1.19-18.2-3.34-26.19-6.26-1.78-.65-3.7-1.45-5.15-1.96-.62-.22-1.52.25-2.03-.09-1.29-.86-1.18-4.45-2.67-3.29l-.61,1.37c.33-3.26-1.77-2.39-2.19-2.73-.15-.12.56-1.48.05-2.33-.33-.53-2.53-1.6-3.35-2.28-.97-.8-1.03-2.91-2.7-1.62v2.41c-.69.27-2.52-1.74-2.72-2.05-.79-1.23-.89-2.14-1.41-3.35-.77-1.79-1.65-.7-.23-3.86l-1.59.51c-1.2-2.31-1.89-4.24-.98-6.78.12-.34.96-.28.94-.54-.2-2.16-2.82-1.07-3.18-2.26.45-1.78-1.08-3.58-1.17-4.86-.16-2.34,1.89-6.56,1.04-8.54-.17-.4-.89-.38-1.01-.8-.23-.83.5-3.32-.6-4.54h1.64c.41-1.04-.88-1.94-.9-2.47-.08-1.66,2.34-2.15-1.83-4.36l1.63-.3c-.53-1.58-.15-2.47,1.64-2.16l-.38-.97.93-.4-.12-1.27-1.52-.94,1.9-2.96c.56.76-.1,1.38,1.36,1.09l.55-4.36,1.08.26v1.11c1.25-2.96,3.49-4.8,5.37-7.18.58-.73.77-2.17,1.14-2.57,1.01-1.13.42.76,1.72-2.06,1.05-2.29,2.79-.99,3.25-1.26.16-.09,2.2-1.88,2.64-2.25,1.24-1.06,2.52-3.06,4.15-4.03.77.26-1.17,2.86.53,2.17,1.2-.48,2.48-1.88,2.48-3.25l1.34-.02c.49,2.02,2.63,1.18,3.51-.33l-1.05-2.38c1.51-.35,3.76-.42,5.07-1.2.97-.58,1.06-1.56,1.73-2.08,4.35-3.4,4.23,1.08,6,.88,1.21-.14,2.42-1.42,1.92-2.73l1.08-.32ZM40.61,2.19c-3.06,2.2-.32,6.02,1.38,1.9l-1.38-1.9ZM21.8,16.35l2.4.46c2.16-1.4.8-2.81-.49-4.26l-1.91,3.8Z"/>
  </g>
</svg>