<?xml version="1.0" encoding="UTF-8"?>
<svg id="Layer_2" data-name="Layer 2" xmlns="http://www.w3.org/2000/svg" viewBox="0 0 112.16 110.71">
  <g id="Layer_1-2" data-name="Layer 1">
    <path id="_10" data-name="10" d="M62.38.22c1.78.95,7.85,2.46,10.39,2.98,1.18.24,2.79-.97,3.24,1,.09.4-.42,1.12-.34,1.23.16.22,3.79,1.39,4.05,3.32,1.98-3.07,1.63.13,1.9.29,1.86-.17,4.15,2.05,5.97,3.32,2.79,1.95,4.49,3.33,7.12,5.96.45.45,1.4.67,1.56.91.18.27-.3,1.25-.1,1.95.71,2.47,2.01,1.84,3.49,3.07,1.03.86,2.14,4.04,4.05,5.79.67.62,4.08,1.22,1.36,2.42l.58,1.37,3.2.06c-1.05,3.1,1.17,4.46,1.97,6.47.26.64,1.47,8.48,1.36,8.92-.1.41-1.08.35-1.13.7-.11.76,1.03,5.32,1.03,6.47-.01,7.23-2.38,13.45-4.44,20.01-.27.85.39,1.68-.11,2.59-.44.81-2.5,2.2-3.53,1.67l1.1.81v1.09c-2.34,1-2.02,2.25-.57,4.08l-1.42,1.09-1.3-.54v3.28s-1.09-.55-1.09-.55c-.17,2.07-1.64,1.67-.55,4.36l-1.54.09-.15,1.45c-1.45-.54-2.03,1.65-3.49,2.27l-.54-2.18c-.71,2.14-3.51,2.43-4.63,3.57-3.34,3.39-5.87,6.99-10.87,8.74-1.97.69-3.44-.46-4.67,2.4l-1.63-1.1-.55,1.12-.8-.03c.04-2.43-3.83-.18-5.2-.07-3.27.27-9.28-.48-11.99-1.54l-.52,1.09c-.67-.48-1.52-.84-2.33-.96-6.63-1.01-13.32-2.73-19.89-4.1-.71-.15-9.68-5.67-10.88-6.46-3.3-2.19-9.61-8.42-11.62-12.51-.27-.56.27-1.32.14-1.51C.49,71.76-1.56,55.99,1.08,40.24c.78-4.64,4.04-7.45,4.77-11.86.94-.26.14,2.03,1.37.56s1.08-2.52,1.61-3.84c.73-1.8.94,1.81,1.65,0,2-5.14,3.19-8.3,7.64-11.99,1.39-1.15,5.69-3.24,6.32-4.08.57-.75-.24-1.75-.07-1.92.42-.44,4.07-.24,5.13-.56,1.82-.55,3.87-2.37,5.65-3.12,3.72-1.57,10-2.93,14-2.89,1.77.02,11.34,2.09,11.75,1.66V.02c.53-.02.96-.08,1.48.2Z"/>
  </g>
</svg>