<?xml version="1.0" encoding="UTF-8"?>
<svg id="Layer_2" data-name="Layer 2" xmlns="http://www.w3.org/2000/svg" viewBox="0 0 102.73 92.78">
  <g id="Layer_1-2" data-name="Layer 1">
    <path id="_11" data-name="11" d="M86.41,12.88c1.65,1.46,10.66,10.37,11.25,11.36,1.31,2.24,3.99,13.25,4.5,16.21,1.44,8.32.2,25.68-4.38,32.69-1.81,2.77-5.11,4.48-7.01,6.62-2.19,2.46-1.97,5.56-5.87,6.67-2.72.77-4.83,1.08-7.8,2.01-26.41,8.37-49.26,5.93-64.31-19.14C6.23,58.38-2.44,38.07.64,25.05c.88-3.71,2.34-3.56,3.4-5.32.86-1.42.03-3.39,2.24-5.94,3.25-3.75,5.68-3.23,9.43-4.75,7.96-3.23,10.27-6.46,20.02-7.78,19.95-2.69,35.2-2.06,50.68,11.61ZM45.48,3.38c2.89-.26,6.07.19,8.99,0-.22-.93-2.84-1.14-3.55-1.14-2.23.02-7.14.31-9.23.63-2.28.34-4.94,2.46-7.39,2.7,1.04,2.4,3.4-.33,4.91-.83,1.07-.35,5.14-1.26,6.27-1.36ZM62.64,88.44c-5.32,1.26-10.48-.74-15.81.27l9.01,1.95,6.8-2.22Z"/>
  </g>
</svg>