<?xml version="1.0" encoding="UTF-8"?>
<svg id="Layer_2" data-name="Layer 2" xmlns="http://www.w3.org/2000/svg" viewBox="0 0 91.14 91.65">
  <g id="Layer_1-2" data-name="Layer 1">
    <path id="_12" data-name="12" d="M42.58.07v1.62S47.26.11,47.26.11l1.52,1.53,1.98-1.58,3.01,3.26c.95-.6-.33-1.2-.56-1.64-.9-1.74,1.79-1.79,3-1.63l-.54,3.27.63-.92c1.39.14,1.83.08,2.35-1.26,1.87.13,1.69,2.93,2.01,3.19.61.5,3.02-.57,2.65,2.27l1.05-.54c-.26,2.61,2.61,2.36,4.17,3.48s8.52,8.54,9.43,10.03c2.1,3.43,1.62,8.52,5.78,9.92l.27-1.63c1.71.57.82,2.67,1.12,4.06.83,3.82,1.37,7.67,2.18,11.44.39,1.81,1.18,3.76,3.23,3.04l-1.55,3.53c2.11.66.83,2.05,1.09,2.37.24.3,1.24-.28,1.01.63h-2.18s.55,2.18.55,2.18l-1.54.07-.65,4.29-1.63-1.08-.55,4.91-1.62-.55-1.18,3.23c-4.31-1.07-2.9,1.67-3.7,2.49-.6.61-2.4,1.14-3.3,1.38l1.63,1.63c-3.05-1.5-2.32.83-4.9,1.1l1.07.78c-.3,2.08-2.45,2.83-3.48,4.17-.57.75-.47,1.85-.82,2.35-.29.41-2.2.41-2.5,1.96-.93-2.16-1.55-1.29-3.51-1.62l-1.4,3.25c-2.17-2.46-2.58-2.19-5.13-.72-.71.41-2.7,2.69-2.88,2.8-.55.33-1.43.06-2.07.11l.54,1.63c-2.21-1.14-3.06.06-4.72.36-1.17.21-3.64.6-4.52,1-.67.31-1.27,1.45-1.94,1.92l-1.09-2.71-4.64,1.63.28,2.17-1.37-2.72-1.36,1.01c-.37,0-3.42-3.44-4.23-3.9-1.23-.69-4.91-1.18-5.74-2.17-.51-.61.5-2.03-.91-1.1-.4-1.58-3.56-.2-4.4-.56-.59-.25-3.32-3.55-4.58-3.92l1.06-1.91-1.09.27-.05-1.88-1.59-.03c.63-1.39.47-2.67-1.08-3.26l-.54,1.09c-.31-1.11-.17-2.89-1.64-2.73l1.08-1.35-2.72-2.19,1.09-.81c-3,.54-1.68-3.35-2.69-5.17-.13-.23-2.9.41-1.12-3.28l-.54-.56c-1.39,1.03-2.4-3.38-2.2-4.27.09-.4,1.12-.33,1.13-.66.07-1.51-1.03-6.97-.86-8.16.07-.52.84-.97.84-1.07-.03-.56-1.96-.09-1.67-2.73,1.34-1.66,2.16-3.65,3.38-5.38,1.9-2.68.81-1.81,1.84-4.15.44-1.01,2.03-1.31,2.5-2.03.3-.47,2.27-9.59,2.45-10.88.08-.52-.38-1.23-.32-1.26.61-.42,2.16,1.05,3.08-2.02.12-.41-.38-1.17-.33-1.22.08-.09,1.51-.24,2.26-.75,1.93-1.29,3.84-4.15,5.93-5.52,3.28-2.15,6.02-2.84,9.98-2.56l.34-1.55,1.36-.02c.02,2.03,4.13.15,5.29-.58.98-.61-.3-1.85,2.05.05.11-1.7,1.24-1.82,2.72-1.62Z"/>
  </g>
</svg>