<?xml version="1.0" encoding="UTF-8"?>
<svg id="Layer_2" data-name="Layer 2" xmlns="http://www.w3.org/2000/svg" viewBox="0 0 113.96 108.93">
  <g id="Layer_1-2" data-name="Layer 1">
    <path id="_13" data-name="13" d="M64.23.56c.12.06.07.83.51.95.7.19,1.66-.04,2.49.14,1.81.39,2.48,1.64,4.21-.12-.06,3.26,7.16,2.58,7.54,2.81,14.47,8.91,32.9,24.31,33.67,43.26.03.7-1.92,2.71,1.33,2.46-1.15,2.21-.7,2.13,0,4.36l-1.08-.27c.35,1.66-1.1,4.76-1.05,6.01s2.04,3.72,1.52,6.53c-.02.11-.44.29-.84,1.78-.3,1.14-2.54,5.16-.17,5.04l-4.36,6.81,1.09.53c-1.02,2.57-4.25,4.44-3.28,7.37-2.2-1.36-2.2,3.11-2.8,3.71-.06.06-.8-.33-1.28.06-6.14,5.03-12.64,7.65-19.39,11.65-.48.29-1.27-.31-1.88,1.47l-.53-1.09c-1.37,1.53-3.67.56-5.31,1.13-.47.17-.47.87-.85,1.03-1.28.53-2.72-.44-2.85,1.65-3.05-2.38-2.88-.08-4.42.19-1.82.33-4.23-.14-6.06-.06-2.05.1-4.5,1.79-6.4-.13l-.28,1.08c-.55-.58-1.74-1.13-2.49-1.3-2.03-.47-4.59-.45-6.55-.61-3.56-.29-14.65-5.41-18.07-7.9-2.88-2.09-11.28-10.63-13.14-13.08-6.04-7.95-8.7-13.6-10.54-23.9-.71-3.98-1.15-8.05-1.27-12.09-.96-.28-.26,1.3-.81,1.09-.52-.21-.98-1.01-.82-1.63h1.65c.08-.06-.46-.85-.38-1.27.89-4.65,1.87-8.97,3.39-13.43.57-1.65,2.46-4.89,2.7-6.04.17-.81-.81-1.17-.81-1.34,0-.53,1.66-.7,2.2-1.21,3.66-3.49,6.47-10.3,10.76-13.75C27.93,5.7,47.74-.78,58.53.08c.5.04,1.22.87,2.27.96,1.14.1,2.98-.71,3.42-.48Z"/>
  </g>
</svg>