<?xml version="1.0" encoding="UTF-8"?>
<svg id="Layer_2" data-name="Layer 2" xmlns="http://www.w3.org/2000/svg" viewBox="0 0 103.02 103.99">
  <g id="Layer_1-2" data-name="Layer 1">
    <path id="_14" data-name="14" d="M40.9,2.58l.29-1.67c2.13-.43,5.15,1.37,7.09,1.05s1.19-2.19,2.72.62l2.99-1.09-.54,1.63c.75.09,1.68-.19,2.38,0,.24.06.98,2.86,1.5.11l1.57.45V1.49c.94-.1.48,1.25,1.43,1.58.2.07,4.04.12,4.24.05.68-.2.17-2.08,1.41-2.18l-.54,2.18,1.63-.54-.54,2.18,4.1-1.6c.82,2.34,4.25,2.2,4.09,4.88,1.05.26,1.47-1.09,2.35-1.01,1.58.13,4.59,4.21,3.64,5.91,1.96.52,1.45-.92,2.72-1.63l-.54,2.18,2.17-.54-1.11,2.99,1.15.58-.57,1.86,3.53,1.11,1.09-2.18,1.91,1.63c.28,1.04-.82,1.3-.94,1.98-.55,3.09,1.56,1.85,2.32,2.33.33.2,4.44,4.82,4.68,5.22.53.9-.15.63,1.04,2.31.68.97,0,2.21,2.17,1.8l-2.18,3.26,3.27-.53c.22.85-.62.32-.9.73-.5.73.28,1.88-1.82,1.45l.02.8c.19.27.66.55.71.82,1.94,9.83,4.85,12.34,3.01,23.67-.57,3.54-5.76,14.33-8.25,16.55-2.09,1.86-1.29,1.83-1.77,2.35-.53.56-2.79,1.77-3.89,2.88-3.27,3.3-7.78,6.27-11.12,10.04-.81.91.21,2.37-2.7,1.77l.26-1.08,1.37.54v-2.72c-1.38-.64-.86.97-1.45,1.09-2.65.55-5.64.55-8.11,2.17l-.79-1.08.57,3.51-1.12.84,2.17.54c-1.76.82-2.42-.21-3.8-1.08l-1.1,1.64-1.09-1.63.26,1.63-4.86,1.09-1.4-2.72c-.17-.13-3.24,2.99-2.72-.55l-3.26,1.1,1.63,1.36-1.05,1.04.51,1.95c-1.8-.37-1.93-2.62-3.81-2.18.43-2.6,2.69-.5.53-3.26-1.21.72-1.98,1.81-1.63,3.26-1.55-2.63-4.84-1.36-6.81-3.27l-1.03,1.02c-2.51-.63-4.65-2.75-6.81-2.71l-.58-1.9c-.77.28-3.07-.68-3.85-1.13-2.25-1.27-4.37-3.33-6.27-5.1l-.57,1.12-2.43-.58c1.08-.72-1.19-3.86-1.76-4.14-.45-.23-1.32.24-1.91-.33-.34-.33-4.19-7.12-4.7-8.13-3.24-6.37-5.1-15.75-7.62-22.71-.16-.43-1.6-7.85-1.44-8.48.11-.44,1.02-.31,1.08-.71.11-.8-.37-3.21-.24-4.3.15-1.22,1.27-2.53.81-4.09l1.08.55c-1.16-3.1.22-2.42.55-3.11,2.94-6.18,1.88-9.52,7.08-15.71,3.11-3.7,7.36-6.67,10.8-9.62.11-.09-.44-.88.06-1.27,1.15-.87,6.9-2.28,9.12-3.47,1.93-1.04,3.77-2.24,5.35-3.75l5.19,2.58Z"/>
  </g>
</svg>