<?xml version="1.0" encoding="UTF-8"?>
<svg id="Layer_2" data-name="Layer 2" xmlns="http://www.w3.org/2000/svg" viewBox="0 0 136.8 133.85">
  <g id="Layer_1-2" data-name="Layer 1">
    <path id="_15" data-name="15" d="M131.49,36.47l1.62-.55c.15,2.1-.73,4.06.05,6.11.19.5,1.05.31,1.1,1.23.18,3.02-.51,7.25-.11,10.41.04.35,2.09,3.19,2.27,3.76.25.8.48,4.69.33,5.39-.16.76-1.08,1.36-1.32,2.41-1.11,4.77-2.01,6.48-3.42,10.75-3.32,10.08-5.19,19.61-10.99,28.81-9.15,14.5-40.66,34.5-58,27.67-1.21-.48-2.09-1.98-2.75-2.09-4.95-.83-5.29-1.86-9.66-4.04-1.88-.94-4.39-1.28-6.01-2.17-2.56-1.4-2.48-4.6-5.8-6.14-.45-.21-1.25.32-1.52.14-.32-.22-.37-1.42-1.2-1.83s-2.52-.05-3.06-.8c-.36-.51,1-2.42-1.59-3.83l-1.09.55c.04-3.05-2.61-3.55-4.08-5.19C14.94,94.38,3.33,77.61.26,60.57-2.3,46.3,14.39,22.68,25.46,14.12,47.12-2.63,72.78-3.35,97.82,6.06c14.54,5.47,29.05,14.68,33.66,30.41Z"/>
  </g>
</svg>