<?xml version="1.0" encoding="UTF-8"?>
<svg id="Layer_2" data-name="Layer 2" xmlns="http://www.w3.org/2000/svg" viewBox="0 0 105.1 109.99">
  <g id="Layer_1-2" data-name="Layer 1">
    <path id="_16" data-name="16" d="M97.01,29.71c.03.13.81.57.96,1.22.29,1.29.18,2.68.69,3.95,1.09.15.06-1.17.89-1.67.49-.29,2.76-.41,2.94.39-1,5.46,1.21,10.62,1.63,15.71.39,4.73.12,10.99,0,15.85-.07,2.88-1.64,4.89.98,7.62-5.32,3.21-5.89,9.57-8.73,14.62-4.73,8.43-15.74,15.98-24.61,19.55-18.42,7.4-36.61.59-49.71-13.18l3.51,6.76c-.19.81-2.38,1.78-3.22,1.18l-11.73-17.2.21,3.74-2.64.61c-.54-.38-2.24-10.81-2.9-12.64-.39-1.07-1.85-2.38-1.94-2.98s1-1.38,1.04-2.6c.05-1.46-1.36-8.07-1.98-9.53-.57-1.35-2.23-2.48-2.39-4.13.07-2.47,3.16-2.9,3.85-3.76.54-.67,1.27-9.63,1.02-10.95-.4-2.09-3.1-2.23-2.7-3.28.65-1.7,3.59-.76,4.35-2.2l-1.04-1.55c1.27-2.76,3.08-4.94,4.75-7.25-1.88-4.62.29-6.88,4.75-8.36l.8,1.08c-.21-1.57,1.48-1.04,2.36-1.6.46-.29.54-1.17.92-1.37,1.51-.81,3.26.5,3.32-2.21.02-.79-.49-1.78-.43-2.22.07-.49,2.39-2.51,3.1-1.32l-.46-1.56c2.18-.25.64-2.28,1.27-3.35s1.74.61,2.71.59c.46,0,.39-1.39,1.18-1.63,1.37-.41,3.36,1.66,3.99-2,2.25.96,2.14-1.87,4.12-2.86l3.55,1.55-1.08,2.72,1.5-.81-.42-.82,3,1.1.51-1.04,1.61.46c.9-.22.65-1.74.99-2.04.52-.45,3.81-.22,3.71-2.29h.8c.99,1.74,2.83,3.6,3.82,1.08l1.74,2.22,6.14-1.1c-.32,2.32,1.64,1.84,2.49,2.7.62.63.5,1.64.84,2.32.49.98,1.64-.44.01,2.8,3.95,3.84,4.48-1.74,7.51-2.86,2.35,2.54-.15,3.01-2.1,4.55,1.32,1.57,3.29.6,4.89.27.62,3,1.34,4.99,4.1,6.53l1.64-2.71.27,2.17c4.56.18,9.11.61,13.63,0,.48,3.42-.65,8.54,0,11.72Z"/>
  </g>
</svg>