<?xml version="1.0" encoding="UTF-8"?>
<svg id="Layer_2" data-name="Layer 2" xmlns="http://www.w3.org/2000/svg" viewBox="0 0 111.81 115.51">
  <g id="Layer_1-2" data-name="Layer 1">
    <path id="_17" data-name="17" d="M53.83,1.16c.63.51,1.26,2.4,2.36,2.86,1.01.43,4.64-.65,4.89,1.88l1.62-1.63v2.19c2.16.44.2-2.84,2.18-3.27l.58,3.24,3.72.11.89,2.09c1.41-1.77,3.43,0,5.17-1.63v2.19s2.19,0,2.19,0l-.54,1.63,2.22-.23.53-2.47h3.24c.2.64-.06,4.86.83,4.87,1.41.02.02-2.98.28-3.26l1.57.52,1.69-2.16c-.21,1.61,1.13,1.84,1.61,2.62.18.28-.14,1.18.13,1.63.25.42,2.96,1.2,3.71,1.23-1.4,4.21,4.84,4.18,1.64,8.69l3.81-1.63c.72,1.95-1.11,2.85-1.12,3.03-.09,1.08,1.2,1.82.58,2.96,1.29.81,1.6-1.76,1.59-2.38,0-1.05-1.58-3.44.59-3.07.02.79.13,2.68.64,3.16.13.13,3.96.36,1.01,1.47l1.91,2.45.54-1.09c2.39,1.22-.74,6.62-.27,7.08.11.11,1.09-.2,1.5.1s.34,1.19.68,1.68c4.24,6,4.28,7.3,4,14.76-.18,4.7-.16,8.32,2.04,12.59l-1.15.59,1.11,2.99c-1.76-.33-1.98.61-2.19,2.19l-1.07-.55c1,2.83-.05,4.97-1.71,7.31-.42.59-1.42.84-1.49.97-.21.38.49,1.39.37,2.23-.16,1.15-.86,5.47-1.34,6.23-.76,1.21-3.01,3.41-4.55,2.89.51,2.55,2.9,1.19,2.73,3.81-1.29.17-1.43.09-1.87-1.04l-1.94.5,1.11.81c.13.72-.16,1.61-.85,1.9-1.26.54-.38-1.32-1.35-1.08-.24,1.9-2.67,2.36-4.37,2.18l1.64.54v1.63c-2.78-.47-2.1.9-2.92,2-.29.38-.99.43-1.32,1.11-.75,1.55.12,3.58-2.3,3.99l-.56-2.73c-1.05.8-1.4,1.04-2.72.55v2.17s-.82-1.09-.82-1.09c-1.91,1.88-2.8,3.82-3.01,6.54-1.86-.34-1.24-1.05-1.39-1.34-1.43-2.68-2.17,1.55-2.77,1.95-.5.34-1.56-.04-2.33.23-.46.16-.88,1.08-1.53,1.28-1.09.32-1.91-.51-2.57-.5-.33,0-.26,1.07-.65,1.14-.22.04-3.82-.05-4.32-.09-.91-.06-1.61-1.19-1.85-1.01-.05.04.08.75-.17.9-.33.2-1.85.89-2.47,1.21-.56.28-3.46,1.71-3.66,1.7-1.02,0-1.35-1.15-1.88-1.36-.59-.24-1.29-.26-2.62-.8-2.73-1.11-5.84.16-8.49-.63-.69-.21-1.26-2.91-3.62-.5v-1.64c-1.96,1.95-2.18.53-3.56.26-.51-.1-1.3.51-1.79.21-.26-.16-.27-1.28-.99-1.52-1.09-.37-2.51.82-3.67.45-.72-.23-3.11-4.15-5.83-2.92-.76-2.94-.23-2.68-2.98-4.08l.27-2.21-1.63,1.08,1.09-2.71-2.72-1.37,1.09-1.36c-2.22-.36-5.61.13-6.8-2.22-.8-1.59.33-2-2.47-2.97v-.8s1.06-.25,1.06-.25c-.43-2.52-2.07-2.34-4.34-2.49l-.55-6-1.08.55-1.11-6.01H1.65s.47-1.56.47-1.56c-3.48-1.36-.87-4.23-1.11-6.35-.12-1.04-1.18-2.27-.99-3.54l1.64,2.17,1.9-2.71,1.9,2.17v-6.54c-.22-.27-.9.88-1.35.92-2.23.2-2.64-6.02-.29-5.84l-1.12-2.42c3.04-1.99.31-8.07,3.89-9.88l-1.68-2.68,3.27-1.91-1.63,3.26c3.66.5,2.79-2.95,3.7-4.74,1.24-2.45,3.91-4.81,4.45-7.56l-1.59.31c-.4-.52,2.22-2.89.25-3.27-.88-.17-1.59,1.77-2.44.82,1.33-2.01,2.75-1.85,4.91-2.17l.52-.56c-2.04-1.46.64-4.59,1.11-1.36l1.39-1.09-.85-2.73,1.08.27c-.11-1.07.81-3.89,1.64-4.39.44-.26,5.52.1,4.36-2.96,1.62-.62,1.56.96,1.99,1.08,3.03.87,1.52-2.21,2.64-3.81,1.05-1.5.7.6,1.1.56,1.67-.15,4.25-1.81,3.54-3.84,1.2-.05,2.27.67,3.49.55,2.38-.23,4.12-2.24,5.46-2.81s2.84.35,4.52-1.17c.35-.32.17-2.07,2.21-2.45.86-.16,3.13.6,3.8,1.13Z"/>
  </g>
</svg>