<?xml version="1.0" encoding="UTF-8"?>
<svg id="Layer_2" data-name="Layer 2" xmlns="http://www.w3.org/2000/svg" viewBox="0 0 122.72 125.46">
  <g id="Layer_1-2" data-name="Layer 1">
    <path id="_18" data-name="18" d="M65.91,1.1l-.83,1.11-12.26-.02c-.15.12.29.7.54.82,1.28.63,10.03.08,12.27.27,1.69.14,3.22.94,4.9,1.09l.29-1.63c5.39.17,9.55,4.27,14.7,5.44l-1.63.54c-.47.35,8.26,4.59,9.2,5.24,3.16,2.18,4.29,3.14,7.87,5.21,3.24,1.88,12.62,13.77,14.26,17.36,4.85,10.56,8.1,20.75,7.39,32.46-.6,9.97-3.8,19.24-8.65,27.88-8.12,14.45-24.38,19.97-38.92,25.84-.49.2-.55,1.19-1.47,1.39-1.38.3-2.49-.45-3.85-.33l1.63,1.08c-2.29-.97-4,.39-5.77.51-11.42.74-25.29-3.4-34.52-10.09-1.08-.78-7.25-5.42-7.56-5.8-.27-.33-.08-1.49-.64-2.35s-5.31-6.22-5.75-6.25c-.46-.03-.82.52-.27,1.35,1.05,1.61,3.68,3.26,4.91,4.91-2.7,1.11-1.73-3.09-4.36-1.05-2.74-1.98-4.05-5.28-5.98-7.69-.94-1.17-3.1-2.29-3.99-3.67C5.3,91.44.04,76.58,0,72.86c-.07-6.21,1.2-12.97,1.6-19.12.55-8.58-1.36-12.19,3.88-20.11,1.71-2.58,10.41-12.63,12.72-14.05,3.88-2.38,6.05-5.07,9.83-8.11C34.92,5.95,44.62.45,53.65.02c3.95-.19,8.29.96,12.26,1.08Z"/>
  </g>
</svg>