<?xml version="1.0" encoding="UTF-8"?>
<svg id="Layer_2" data-name="Layer 2" xmlns="http://www.w3.org/2000/svg" viewBox="0 0 116.37 115.03">
  <g id="Layer_1-2" data-name="Layer 1">
    <path id="_19" data-name="19" d="M7.99,25.11l-2.16,6.27,1.07.26c1.15-1.81,4.07-5.57,5.73-6.58,1.12-.69,3.25-.36,4.37-2.67l1.08,1.08c2.04-4.74,6.41-5.71,10.23-8.16.61-.39.71-1.44,1.51-1.9,1.82-1.04,3.81,0,2.71-3.57,5.27-.52,10.27,1.01,15.47,1.5,1.14-1.53,4.34-3.31,5.3-4.5.69-.86-.09-2.23.6-2.88.8-.76,3.06-.59,4.27-.93,4.53-1.29,5.19-.86,9.52-1.39,7.73-.94,13.56-2.71,21.55-.81,4.86,1.16,7.15,3.49,9.71,7.74s2.18,7.73,6.07,11.38c1.18,1.11,3.66,2.4,5.17,3.02,1.16.47,2.51-.53,3.3,1.05,1.16,1.53,2.29,8.49,2.45,10.63,2.5,32.73-4.82,66.86-39.51,77.69-13.01,4.06-33.8,3.42-46.61-1.38-5.87-2.2-18.36-9.84-20.96-15.58-1.61-3.54-3.14-5.1-4.77-8.3-5.22-10.24-5.47-45.94-.54-56.36.93-1.97,2.58-4.47,4.45-5.63Z"/>
  </g>
</svg>