<?xml version="1.0" encoding="UTF-8"?>
<svg id="Layer_2" data-name="Layer 2" xmlns="http://www.w3.org/2000/svg" viewBox="0 0 130.82 129.74">
  <g id="Layer_1-2" data-name="Layer 1">
    <path id="_2" data-name="2" d="M107.28,14.2c.29.23,3.39,4.87,4.16,5.95,1.19,1.69,4,7.27,4.95,8.15.7.65,1.84.48,1.91.54.07.06-.57,1.04-.46,1.77.44,2.97,2.79,5.1,5.9,4.23l-2.73.82,2.7,7.12,3.85.79-2.73.54c1.36,7.64,3.99,15.1,3.35,23.1l2.65.9-2.75,1.44c-.43,3.74-.49,7.59-1.13,11.31-1.3,7.51-5.6,16.54-9.76,22.95-1.31,2.02-4.56,3.76-3.26,6.28-1.58-.85-6.99,4.55-7.34,5.44-.22.54.37,1.43.24,1.61s-2.22.43-2.84.73c-1.71.82-7.54,3.6-8.59,4.49-1.12.95-.99,2.22-1.17,2.37-.28.24-2.43.03-3.33.22-3.17.65-9.47,4.67-10.5,4.77-1.3.13-4.47-.64-6.56-.57-3.47.11-6.66.73-10.35.59-10.66-.39-26.76-3.56-35.63-9.62-3.1-2.12-5.3-5.96-8.77-6.22l1.09-.81C8.52,99.98,2.64,83.49.49,66.22-6.62,9.33,65.89-19.08,107.28,14.2Z"/>
  </g>
</svg>