<?xml version="1.0" encoding="UTF-8"?>
<svg id="Layer_2" data-name="Layer 2" xmlns="http://www.w3.org/2000/svg" viewBox="0 0 130.3 140.19">
  <g id="Layer_1-2" data-name="Layer 1">
    <path id="_20" data-name="20" d="M78.59,3.79c.09.08,1.62-.24,2.44-.08s1.83,1.02,2.13,1.01c.38-.01.88-.86,1.61-.92.27-.02.24.76.73,1.06,1.19.73,3.82,1.36,3.93,2.78l.54-1.64h2.17s0,2.74,0,2.74h3.82s-.42,1-.42,1c1.76.17,1.24,1.5-.13.91v.8s2.18.56,2.18.56l.27-1.64c1.96.88,3.49,3.06,5.73,2.18l-1.08,1.36,2.7,1.09-1.63,1.63c.31,1.75,1.58.85,1.92,1.37.12.19-.28.9-.17,1.01.35.37,2.46.58,3.45,1.16,1.11.65,5.54,6,6.79,4.92.86-.74-2.04-1.5-1.08-2.72,1.96.77,1.63,2.55,1.68,4.33l1.58.03-1.09,1.36,2.16.85c-.82,1.31.26,1.99.57,3.23l1.08-1.08v2.72s1.39-.05,1.39-.05c.43,1.07.12,2.26.51,3.34,1.37,3.81,4.94,8.96,6.3,12.83.47,1.34.33,4.09,1.08,5.68l-2.73-1.35c.18,1.11.89,2.7,1.77,3.38.13.1,1.52-.96,1.51,1.8l-1.09-.27v2.98s-1.08-2.18-1.08-2.18c.44,2.47-.39,5.21-.49,7.4-.01.26.95.18,1.05.59.33,1.35-.8,3.1-.56,4.55l1.08-1.08.94,9.98-2.3,6.36c-2.17-1.1,1.98-4.58-.81-4.35-.02,1.77-1.04,4.08-1.01,5.74.02,1.24.86,1.81.62,3.41-.1.71-3.26,5.95-4,7.34-.43.79-2.28,1.43-1.62,3.68-5.4-1.72-5.82,7.05-9.26,9.55l2.17,1.35-2.72.83,1.13.58c-.43,1.5-.49,2.22-2.22,1.87l.27-2.17c-1.44,2.35-3.4,4.75-6.27,5.46l1.08,1.08c-1,.27-3.4,1.58-4.13,2.17s-.33,1.43-.76,1.92c-3.61,4.15-8.6,4.24-13.39,6.8-1.22.65-2.88,1.44-3.53,2.74l4.36-1.36c-2.82,2.93-5.25,1.81-8.72,2.46l2.18.54c-2.16,3.19-6.88,1.35-9.55,1.58-1.64.14-4.06,2.59-5.71.06l4.36-1.09c-2.72.92-4.52-1.47-7.36-1.1l-.26,1.09c1.44-.17.59.7,1.08,1.64-2.29.43-4.25-.57-6.35-.9-1.66-.26-3.95,1.22-4.55-2.37h3.81c-.9-2.38-3.99,1.1-4.63-1.64l-.27,1.09h-.81s-.28-1.09-.28-1.09l-.59,1c-1.53-.72-2.53.73-3-1.04l-2.94.58.54-2.17-1.35,1.09-8.74-4.91-.81,1.08c-.82-2.41-4.58-3.44-6.36-5.09-.97-.9-1.94-2.98-2.94-3.88-1.34-1.19-2.92-.12-1.6-2.48-2.54.75-2.69-3.53-3.4-4.24-.42-.42-1.9-.14-2.8-1.21-.47-.56-.33-2.59-.44-2.67-.25-.17-.99.12-1.57-.42-1.69-1.59-6.06-11.6-8.06-14.72-.71-1.11-.41-2.89-2.26-2.93l1.09-.54c-.99-.87-.51-2.38-.72-2.91-.49-1.22-2.67-2.44-2.58-3.89.01-.19,1.4.11.9-3.17-.3-1.95-1.36-5.21-1.44-7.22-.1-2.41,1.19-6.23,1.11-8.11,0-.17-1.99-1.1-1.57-2.74l1.58-1.11c-.49-1.94-1.91-.66-2.48-1.92.39-1.96-.46-3.82-.24-5.68.1-.82.69-1.51.87-2.31.33-1.47-.71-3.38,1.85-2.91-1.29-2.46.66-2.47,1.3-3.8.09-.19,1.33-3.49,1.39-3.69.26-.9.39-5.34.58-5.59l1.63.55c.1-1.23,2.09-6.06,2.82-6.48s2.14.9,3.18.24c.74-.47.93-2.45,1.9-3.03l.81,1.07-.81,2.19c2.35-1.46,3.55-5.15,5.22-6.78,1.32-1.29,3.79-1.5,4.87-3.31l-1.09-.54c1.76-1.98,3.31-4.98,5.23-6.76,5.5-5.11,14.43-8.73,21.32-11.4l.16.98c2.61.29,7.37-3.1,10.7-3.24,2.89-.12,9.2,1.01,11.88.5.81-.15,1.8-1.19,1.93-1.08.07.06.03.94.54,1.3.32.22,1.02-.09,1.38.31.56.62.65,1.98.89,2.17Z"/>
  </g>
</svg>