<?xml version="1.0" encoding="UTF-8"?>
<svg id="Layer_2" data-name="Layer 2" xmlns="http://www.w3.org/2000/svg" viewBox="0 0 98.12 99.3">
  <g id="Layer_1-2" data-name="Layer 1">
    <path id="_21" data-name="21" d="M62.7,3.35c1.68-1.74,2.01-.19,3.8.54l-.55-1.63c2.28-.43,3.46-2.07,5.45.27l-1.08,1.35,3.26-.55v1.65s.98-.41.98-.41l4.2,4.76,1.09-1.63,2.46,2.71-1.64,1.09,1.87-.57.42.94.96-.37c.31,2.79,4.85,5.04,5.84,7.78.37,1.02-.06,2.16.43,3.14.37.75,1.65.88,1.81,1.17.13.24.94,3.19,1.61,4.67,1.34,2.97,2.45,5.43,4.44,8.11l-.06.67c-1.2-.09-1.41,3.69.11,3.62-2.01,1.87-.12,5.09-.66,7.64-.08.38-1.41.11-.99,1.63.11.4,1.31.37,1.54,1.14.04.15.13,2.96.11,3.12s-2.12,2.24-2.15,2.41c-1.61,7.8-1.55,6.27-5.37,12.28-.26.41-.7,3.87-2.26,5.5-.77.79-3.07.88-2.75,3.65l-1.63-.55c1,2.09-.4,1.61-.9,2.36-1.51,2.24-2.11,2.49-4.19,3.97-2.55,1.81-3.59,1.17-3.14,5.61-1.34.72-2.04.19-3.21-.49,2.9,9.08-1.76,3.42-7.09,3.82l.54,3.81c-2.59-.35-3.77-2.5-6.54-1.08l-.27-1.64c-.72,1.02-3.31,1.47-3.81,2.19-.56.8-.24,2.59-1.65,3.26l-.6-1.13-13.31.59.3-1.65c-2.36,0-2.43-1.6-3.11-2.11-.4-.29-1.63.62-2.29.53-.43-.05-.59-1.42-1.58-1.85-1.84-.8-5.44-.91-7.87-1.91-2.24-.92-3.58-2.86-5.35-3.92-1.46-.88.38,1.71-1.07,1.08-5.99-2.58-6.37-9.25-11.18-12.81l1.09-1.08-3.79-4.4,1.06-1.86c-3.32-.81-1.96-4.24-2.43-6.56-1.11-5.4-2.38-6.04-2.72-12.22-.1-1.8-1.02-5.57-.8-7.06.03-.2,1.23-.53,1-1.71l2.24-.26-1.67-3.51,1.43-1.33c-1.4-2.9-.28-2.21.06-2.95.28-.61.11-1.21.37-1.85.08-.2.89-.18.91-.49.05-.81-1-2.56-.58-3.75l1.67-.3c-.19-.71-.8-2.61-.45-3.14.15-.24,1-.28,1.23-.69.36-.64.18-1.48.51-1.97.96-1.45,3.87-.97,2.52-3.46l2.18.54c.45-1.4.34-1.6-.54-2.72,3.34-1.09,5.8-4.86,9.81-3.82v-1.63c1.64.07,3.46,1.15,3.9-1l1,.46-.55-2.73-2.72,1.08c4.21-4.11,11.18-3.12,16.55-4.38,9.49-2.23,10.47-5.39,21.18-1.44,1,.37,2.48-.85,2.63,1.47Z"/>
  </g>
</svg>