<?xml version="1.0" encoding="UTF-8"?>
<svg id="Layer_2" data-name="Layer 2" xmlns="http://www.w3.org/2000/svg" viewBox="0 0 95.9 100.37">
  <g id="Layer_1-2" data-name="Layer 1">
    <path id="_22" data-name="22" d="M37.28,98.68c-2.04-.47-6.77-1.83-8.54-2.63-2.69-1.21-5.48-4.03-8.09-5.54-1.46-.38-.26,1.35-.1,1.47.94.76,2.71.84,3.11,2.33-5.96-2.12-9.84-8.71-13.11-13.77-.78-1.2-2.74-3.65-3.3-5.03-.42-1.04-.02-2.57-.51-3.22-.68-.91-1.74-.79-2.42-1.44-1.29-1.23-3.99-8.61-3.8-10.4.11-.99.3-1.22,1.33-1.03l-.54,2.17c.62-.58,2.63.62,2.17-.81-.14-.42-1.59-3.86-1.76-4.01-.36-.31-1.38.02-1.5-.1-.22-.2.5-2.07.42-2.86-.43-4.29-.96-8.06-.38-12.63.18-1.41,2-6.39,1.93-7.12-.27-3.12-.68-6.75-.22-10.23.13-.97,1.59-6.01,2.07-6.41,1.22-1.03.82,1.35,1.62,1.08l.55-2.18-1.08-.26,4.35-3.01c.26,1.43-1.49,1.8-1.91,2.75-.28.64.21,1.51-.12,2.53-.67,2.1-3.71,4.88-3.42,7.81l1.08.26c-1.64.41-2.28,1.56-2.73,3.27-.35,1.35,1.74.38,2.04.13.89-.76,3.38-7.03,3.98-8.57h1.08s.26,1.07.26,1.07l.71-2.07-.97-.36,5.93-6.63c.7-3.75,2.8-3.8,5.52-5.92-3.52-1.67,1.36-1.39,1.53-1.52,2.19-1.74,1.08-.79,3.5-1.63,3.5-1.21,7.06-2.97,10.78-3.12l-1.08-1.08,22.51.63,1.47,2.09-2.72.54,4.66,1.14,2.15-1.49c1.73,2.14,7.51,1.95,6.27,5.23l3,1.67,1.08-1.09,9.84,9.24c12.92,13.16,16.65,46.37,4.91,60.56-6.13,7.41-15.1,9.91-23.32,14.36l-1.78-.75c-.43,1.76-1.54.47-3,.55l.48,1.01-3.2,1.99,1.09.81-7.43,2.74-1.02-1.12c-5.7,2.91-12.29,2.17-18.5,2.17l-8.48-5.42c2.93.02,5.42,3.48,8.13,4.13,1.84.44,3.74-.13,5.49.78-.01-.35.06-.75,0-1.09,1.63.38,4.23.32,6.07.22.61-.03,2.73.07,2.65-.76-3.36-.12-6.65.15-9.81-1.09-.46,1.56.94.74,1.09,1.63ZM21.87,87.93c-.52-.32-1.49-.15-2.34-.66-1.37-.82-.94-3.63-3.23-3.86-1.35-.23-.57.73-.28,1.37,1.35,3.03,7.42,6.91,10.41,8.68.79.47,3.74,2.67,2.96.31l3.54,1.09-7.37-5.44-1.62,1.08c-.99-.4-1.62-2.29-2.07-2.57ZM48.19,92.69c-3.2-1.57-6.54.69-9,.44-2.14-.22-4.82-1.6-7.35-.98l5.9,3.75c2.17.85,6.35-.67,8.65-1.5.95-.34,2.17-.44,1.81-1.71ZM53.69,93.69l-.33-1.02c-.44,1.83-1.94.97-3.54,1.1l.54,1.63-2.18.54c1.01.43,6.04-1.17,6.54-1.64.6-.56-.04-1.46-1.03-.62Z"/>
  </g>
</svg>