<?xml version="1.0" encoding="UTF-8"?>
<svg id="Layer_2" data-name="Layer 2" xmlns="http://www.w3.org/2000/svg" viewBox="0 0 107.9 110.73">
  <g id="Layer_1-2" data-name="Layer 1">
    <path id="_23" data-name="23" d="M46.31,2.18h1.08s-.54-1.63-.54-1.63l2.99,1.64-.27-1.09c4.7,1.45,9.79-.71,14.24-.25,1.01.1,1.22.34,1.03,1.33-2.18.48-2.64,1.83-5.45.55v1.63s3.48.58,3.48.58l.64-1.15,1.56.58c.34,0,.24-.98.68-1.1,3.9-1.01,2.77,1.98,3.74,2.18.55.12,1.14-.8,1.61-.84,5.07-.43,6.91,6.17,11.7,6.32l.09,2.08c3,.51,8.01,4.99,9.79,7.4.69.94,1.89,4.14,2.68,5.49.69,1.18,3.45,4.41,3.6,5.11.18.85-.78,1.35-.57,2.23.23.95,1.58,1.48,1.84,2.07,1.43,3.19.52,6.55,5.5,6.66-.79,1.35-.85,2.95-2.72,3.27v.53c2.6.03.1,5.42,2.71,5.47l-1.63.54,1.09,1.35-1.09-.27.02,1.08c.56.69,2.12,2.66,2.92,3.88,1.21,1.86.14,4.25-.15,6.29-.38,2.7-.4,2.12-1.05,4.45-.3,1.07.39,3.36-.15,4.7l2.22,1.96-2.72-1.09c-.29,1.9,1.53,4.42.05,5.64-.84.69-1.83.13-2.17.44-.23.21.21,1.23-.4,1.58-1.89,1.06-2.98-.88-3.33,2.99-.16,1.75,1.36,4.62-1.23,4.61l-.82-4.36-1.64,3.27-.81-1.09c.26,2.44,1.14,4.29-1.95,4.87l-.77-1.06-2.18,2.18-.54-2.18v2.72s-1.57-.46-1.57-.46c-.07,1.62-1.85,1.14-2.78,1.84-.14.1-2.01,2.42-2.08,2.57-.31.64.29,2.66-2.02,3.67l-2.18-1.64c-.41,1.02-.71,1.27-1.91,1.11l1.09,1.62-2.41.49-1.67-2.65.03,2.71-1.13.93-1.09-.92-.81,2.17,2.17-.54v1.63s-3.25-.53-3.25-.53l-.88,2.12c-1.27-.23-2.23-.29-2.68-1.58l-1.13,2.13c-1.14.99-2.51-.18-3.67.12-1.58.41-1.26,3.74-3.03,1.24l.46-1.81c-2.24-.91-7-2.54-5.45,1.6-1.76-1.54-2.84-.52-4.63-.5-1.5.02-2.73-1.21-3.82.5-.43-1.43-1.05-1.19-2.46-1.09l.32-1.67-3.32-2.14-1.38,2.72c-1.75-.43-3.38-.1-3.81-2.18h1.64c.22-3.48-4.05-2.64-5.33-3.4-.35-.2-.41-1.38-1.2-1.79-1.32-.67-3.32-.07-4.37-2.18,1.71-.43,1.44-1.88,0-2.44.56,1.57-2.63.75-3.25.26-.74-.58-.69-1.43-1.12-2.06-.47-.7-1.74.08-.54-2.02-1.5-.62-.84,1.08-1.36,1.09-.74-2.5-1.93-.25-2.99.54l1.04-2.92-4.23-5.09c-.16-1.11,2.68-2.19,1.84-3.98-1.77-1.63-1,1.77-3.32.04l-1.04,1.04-1.37-1.37,2.24-1.13.48-2.95-1.63,1.09c-.18-1.88-.21-2.82,1.63-3.54l-2.45-.79c-1.2-2.55,1.79-2.3,1.35-4.12-.26-1.09-2-.02-2.47-.78l-.25-3.86c-2.71.39-1.72-.24-2.4-1.42-.35-.6-1.18.29-.33-1.85l2.17.55-.55-3.27c-2.05.91-1.67,3.48-4.36,2.72C6.67,57.08-.27,53.94,0,49.85c.11-1.6,1.72-1.48,2.02-2.01.28-.49,1.16-3.95,1.31-4.12.2-.23,1.08-.11,1.49-.42.92-.71.11-2,2.22-.77l-1.95-2.19-1.86.55.54-3.25,1.63-.03-1.55-2.91c1.05-1.14,1.38-2.95,3.18-2.54,1.21-1.1-4.48-2.14-.55-3.54-2.66-.99-1.25-4.18-2.72-6.53l1.36-.83,1.09,1.63.53-3.83c3.77-2.05,1.69,3.52,2.47,5.47-1.3.27-2.44-1.07-3.27.29.48,1.24,1.38,1.62.55,2.98l2.72-1.09-1.1,5.18,1.65,1.36c.63-.76-1.36-6.08,1.64-6l-1.08-.54v-1.08c3.96-1.29.91-7.83,3.52-9.86,1.2-.93,2.45.24,1.93-2.69h-2.73c1.16-4.67,8.53-2.39,10.36-6.54l.81,1.09c2.04-.48,1.4-2.74,2.74-3.26.91-.36,1.21.4.44,1.08-.2.18-1.73.04-.45,1.09,2.34-1.12,3.35-5.55,6.51-3.23,1.26.93.45,3.36,3.57,2.13l-.97-2.92,1.25-1.43c1.37-.55.5,1.52.88,2.1.48.73,4.35,1.2,5.38.61l-1.63-1.36,1.63.27-.53-2.73c1.29.64,3.24.28,3.28,2.18Z"/>
  </g>
</svg>