<?xml version="1.0" encoding="UTF-8"?>
<svg id="Layer_2" data-name="Layer 2" xmlns="http://www.w3.org/2000/svg" viewBox="0 0 113.37 117.12">
  <g id="Layer_1-2" data-name="Layer 1">
    <path id="_24" data-name="24" d="M92.91,12.59c.13.14,1.73,2.88,1.94,3.29.37.71-.08,1.64.15,2.02.82,1.36,9.3,5.27,10.86,8.73.76,1.68-.74,3.81-.71,4.52.1,1.91,3.07,7.32,3.57,10.05.57,3.07.2,7.24.71,10.19.42,2.41,3.01,5.71,3.12,7.81.08,1.61-.98,2.71-.98,4.22,0,1.69,1.36,4.1,1.59,6.06,1.58,13.28-6.15,26.82-16.04,35.09-.92.77-2.34,2.02-3.53,2.19,2.48-2.92,7.28-7.17,7.54-11.29.19-3.01-2.05.16-2.22.26-2.4,1.4-5.79,2.98-7.52,5.83-.67,1.11-.62,2.33-1.36,3.54-.36.58-7.52,8.07-8.02,8.37-3.68,2.22-12.23,3.66-16.49,3.64-1.92,0-7.25-2.18-8.72-1.53-.51.22-.49,1.29-1.12,1.46-1.05.28-3-1.2-3.94-1.41-5.86-1.29-10.91-2.32-16.47-4.79-8.07-3.59-21.59-13.2-26.3-20.58-1.45-2.28-2.06-4.3-3.68-6.83-7.5-11.77-6.07-28.43-1.66-41.3,1.81-5.28,2.95-6.62,5.85-10.78.62-.89.88-3.11,1.95-4.04.61-.53,1.91-.61,2.01-.74.05-.07-.5-.69-.36-.92,2.57-4.27,10.44-8.83,14.8-13.8,2.17-2.48.84-1.27,1.88-2.97C36.4-1.98,59.64-1.18,70.15,2.37c5.35,1.8,9.2,5.49,13.8,7.46,1.76.75,8.18,1.89,8.96,2.77ZM33.09,9.71c1.95-.33,13.58-4.68,13.62-5.72-1.32-2.12-3.88-1.2-5.82-.38-.56.24-5.28,3.22-5.49,3.47-.1.12.3.8.14,1.01-.6.75-2.2.4-2.44,1.62ZM41.82,9.16l-.81-1.62-6.28,4.35c2.96-.13,4.7-1.83,7.09-2.73Z"/>
  </g>
</svg>