<?xml version="1.0" encoding="UTF-8"?>
<svg id="Layer_2" data-name="Layer 2" xmlns="http://www.w3.org/2000/svg" viewBox="0 0 96 100.86">
  <g id="Layer_1-2" data-name="Layer 1">
    <path id="_25" data-name="25" d="M33.17.21l.38,1.02c5.89-2.16,12.29-1.09,18.24.23,1.52.34,7.71,1.91,8.83,2.48.7.35.63,1.29,1.33,1.52,2.37.79,2.5-.57,3.55,3.3,3.22.28,2.84-.84,4.26-2.66-.1.62.22.97.7,1.29,1.19.79,4.3,1.68,5.54,2.56,1.52,1.07.48,4.8,4.68,3.79l.05,2.12c2.52-.82,3.5,1.83,4.7,2.16.82.22,1.72-.39,2.36-.17,1.51.53,4.57,10.17,5.15,12.24,6.97,24.84,3.14,54.37-23.33,65.01-4.37,1.76-7.58,1.9-11.87,2.84-1.87.41-4.6,2.17-6.26,2.46-16.22,2.81-32.1-7.64-41.95-19.59-5.63-6.83-6.68-16.67-8.68-25.03-.2-.83.97-1.9-.85-1.7l1.03-.58c-1.46-2.98.21-5.7.55-8.46.7-5.78,1.04-17.41,3.43-22.2,1.84-3.7,5.38-6.12,8-8.91.9-.97,3.2-3.94,2.26-5.09,2.58.88,3.79-1.76,6.41-2.62,3.13-1.02,4.56-.89,7.73-3.15,1.12-.8,1.97-2.08,3.04-2.96l.73.1Z"/>
  </g>
</svg>