<?xml version="1.0" encoding="UTF-8"?>
<svg id="Layer_2" data-name="Layer 2" xmlns="http://www.w3.org/2000/svg" viewBox="0 0 136.24 134.97">
  <g id="Layer_1-2" data-name="Layer 1">
    <path id="_26" data-name="26" d="M131.89,64.34c-2.12-.39-.51,1.81-.54,2.99-.15,5.62-.59,8.38,1.93,13.87-1.13,2.68-.19,6.25-.31,9.31l-1.62-1.09c-.4.43-.38,5.54-.89,6.56-.55,1.11-2.46,1.67-1.85,3.8l-1.63-1.09c-.09.93.2,2.01-.03,2.9-.1.38-.78.41-.83.52-.64,1.54-2.49,5.51-3.46,6.59-.69.77-2.66.14-3.58,1.46-1.15,1.67.8,6.51-2.47,3.8l.54,2.72-2.18.55c-.23-.18,2.37-2.91.28-2.72-.89.63-.66,1.68-1.03,2.53-.07.16-.65.15-.84.6-.38.87-.31,5.04-1.94,1.76l-1.38.56.55,2.17-4.1,1.1-1.35-1.09c-.08.08,1.07,1.92-.28,2.17s-.9-1.7-1.89-1.63l-.56,3.81c-1.85-1.29-5.9-1.05-5.45,1.64-2.4-2.46-4.39.84-5.18,2.72-1.92-3.21-3.62,1.23-4.14,1.59-.15.1-1.52-.71-2.31-.54-.51.11-.5,1.11-.88,1.37-1.31.87-4.58.21-5.62.39-1.74.31-1.99,2.69-3.67.2l1.08-.81c-2.13-.75-5.45.86-7.45.96-.21.01-3.63-.43-4.11-.51-1.46-.24-3.11-2.51-3.7.63h-.8c-.47-1.65-2.81-2.04-4.41-2.11-.3-.01.02,1.07-1.01,1.07-1.42,0-3.66-.44-3.04-2.23l-1.1.28.55,1.35h-1.63s.54-2.18.54-2.18c-1.24,1.57-3.03-.11-2.73,1.63h-.53c-.09-1.97-2.3-1.74-3.83-2.18l.55-2.16c-3.43-1.5-2.21.64-1.09,2.71-.33.25-3.7-2.44-3.82-3.26l-1.08,1.63c-.22-5.36-2.35-3.86-4.75-5.61-2.63-1.92-4.37-3.36-7.37-4.8-.68-.33-.14-1.37-1.51-.49l-.28-2.18-.54,1.64c-.57-.12.23-1.56-1.26-.65-1.11-1.15-2.6-3.97-3.76-4.81-.5-.36-1.19-.46-1.79-.55l.55-2.17c-2.53,1.41-3.62-3.22-5.45-4.64,2.51-.85.56-1.71-1.09-1.92,1.98-4.23-4.1-6.05-1.63-10.34h-2.19s0-1.64,0-1.64l1.63-.27c-.17-1.57-2.33-2.98-2.61-3.93-.45-1.49.23-3.41-.1-4.69-.15-.57-1.31-.52-1.57-1.26-.41-1.18.15-2.93-.11-4.27-.67-3.52-3.02-7.64-2.75-12.03.06-1.08,1.03-1.86.91-2.47-.19-.97-1.83-2.23-1.91-4.1-.06-1.54,1.27-7.95,2.09-9.19.34-.51,1.16-.31,1.69-.32v-1.63s-1.08.55-1.08.55l.48-3.04c-3.36-2.41,1.05-6.06.62-8.96l1.08,1.08.55-3.82,1.34.52c1.29-.45.11-1.91.3-2.11.15-.16,3.18-.65,3.81-1.95l-1.63-.81c1.28.08,1.99-.3,2.25-1.55l3.67.38,1.71-3.46-2.18-1.37h4.36c-.71-2.27,1.02-2.1,1.52-3.1.42-.85.25-2.28.68-3.06.34-.62,1.54-.05,1.06-1.47l-1.07-.28,2.73-.82-.55-2.72,4.9-.56-2.18-2.17h7.09s-.04-1.93-.04-1.93l3.79.23.88-1.57,1.36,1.08c-.07-1.87,1.7-2.41,2.51-3.86l4.31,3.31c1.17-2.7,3.7-2.33,6.02-1.14l1.15-1.62c2.13-.35,2.97,1.61,3.16,1.61,2.41.01,3.91-3.12,6.29-3.75l-2.17,2.46,1.63.82-1.09,2.18,3.83-.81-.02-1.91c1.15-.15,1.82.98,3.04,1.09.99.09,1.85-.45,2.69-.44,2.13.03,5.62,3.65,8.19,4.26l.99-1.05,1.72,1.02-.29,1.66c2.54-.9,4.96-1.12,6.53,1.09l.24-1.05,1.95.51-.54-2.17h1.63s-.54,2.17-.54,2.17c3.36-1.34,3.44,1.98.26.56l-.26,1.07c3.11,1.71,5.56-.37,7.36,3.28l-.27-1.92,1.08-.26c-.17,2.97,4.05,6.45,6.58,7.35.76.27,1.39-.28,2.44.21,1.33.62,2.33,2.3,3.3,3.35l1.86-.54c-1.23,1.53,2.21,5.01,3.81,4.36l-.54,2.18c3.91,0,4.06,3.53,4.91,6.55l2.72-.54-1.1,4.08,1.65.28c-1.78,2.02-.05,3.64,0,5.99l2.18-.54-1.63,1.62c1.45,1.51,4.64-.75,4.9-.54,1.29,1.1-4,2.47-3.81,3.26,2.09-.69,2.04.89,2.85,1.25,1.73.78,3.95.79,5.31,2.3l-4.35,1.91.26-1.55c1.06.68,2.05.22,1.92-1.17l-5.45-1.09,1.5,1.32-.42,4.13c1.1.13,2.44-.23,3.47-.01.57.12-.02,1.62,1.44,1.1l.27-3.26c1.28,1.14-.07,7.13.29,7.63l3.26-.54-3.27,1.09.5,1.83-1.59,8.53v-8.72Z"/>
  </g>
</svg>