<?xml version="1.0" encoding="UTF-8"?>
<svg id="Layer_2" data-name="Layer 2" xmlns="http://www.w3.org/2000/svg" viewBox="0 0 112.37 117.24">
  <g id="Layer_1-2" data-name="Layer 1">
    <path id="_27" data-name="27" d="M69.74.52c.12.19-.17,1.3.15,2.04.07.15,2.11,1.64,2.31,2.32l.27-2.18h2.18s.54,3.82.54,3.82c2.18.51.6-3.11,1.1-3.81l2.72.55-.55,1.08c3.02-.22,2.49,1.81,2.79,2.1.26.25,1.94.08,2.73.32.97.3.93,1.08,1.2,1.22,2.42,1.3,3.27.32,3.65,4.55l1.38-.5.25,1.03h1.08s1.36-2.71,1.36-2.71c1.48,1.62,1.19,2.78,3.54,3.54l-1.08.81c2.08-.05,2.4,1.73,3.28,3.27l.54-1.09c.57-.48,5.68,8.01,6.11,8.88,1.2,2.45.97,3.77,1.5,6,.12.49,1.18.56,1.54,1.28,1.07,2.15,1.94,5.45,1.2,7.82l1.56.05c0,3.45,3,7.62-.2,10.32l-.81-1.09c1.28,3.01-2.85,8.2,2.18,7.64l-.04,3.79-1.6.02c-.36.34,1.38,2.44,1.07,3.46-.12.4-.95.33-1.05.73-.46,1.87.14,4.5-.47,7.08-.95,4-6.11,14.87-8.59,18.13-1.8,2.37-15.54,15.81-17.69,16.66-1.42.56-2.54.02-3.49.26-.54.13-.1,1.12-.66,1.71-1.42,1.47-9.27,4.98-11.64,3.79.5,3.6-5.65,2.6-7.87,2.71-1.92.09-3.64.83-5.76.02l.55,1.08c-1.82-.67-4.3.12-5.65.03-.39-.03-.34-1.23-1.39-1.43s-1.94.39-2.97.29c-4.47-.45-14.37-3.82-17.31-7.32-1.56-1.86-.93-.94-2.87-2.54-3.61-2.97-9.13-8.97-11.79-12.74-1.38-1.97-1.84-4.52-3.82-5.99l1.63-1.36c-3.29.69-3.1-1.15-3.95-3.72-2.79.38-1.19-3.6-1.5-5.17-.04-.19-2.29-2.09-2.72-2.84C1.51,72.37.04,57.42,0,54.16c-.02-1.62,1.19-2.71,1.56-4.33.66-2.92-.59-5.23.02-8.08l1.66-.34c.68-1.53-1.08-1.66-1.12-1.97-.05-.37,1.15-6.58,1.35-7.34.71-2.6,2.91-3.47,3.44-4.46.63-1.18-.26-3.21,1.78-4.43,2.31-1.38,2.29-3.44,3.77-5.55.61-.87,2.76-1.46,3.15-1.99,2.99-4,8.32-5.2,12.84-8.05.42-.26,1.49-1.56,1.51-2.19l1.03.07.32,1.03h1.1c.39-.86.08-1.37,1.35-1.09l.28,1.07c.27-1.3,3.01-3.3,2.46-3.81h-1.64s.55-2.18.55-2.18l1.9,1.09c.49-1.87,2.14-.92,3.8-1.13l.31,1.66c1.14.34,2.51-.66,3.45-.55.36.04.36.94.78,1.09,1.77.64,3.96.02,5.56,1.65l.56-2.73,2.72.54-1.63-1.63c3.67-.12,8.03-.66,11.67-.5,1.06.05,1.89.76,2.85.87.58.07,2.23-.61,2.38-.38Z"/>
  </g>
</svg>