<?xml version="1.0" encoding="UTF-8"?>
<svg id="Layer_2" data-name="Layer 2" xmlns="http://www.w3.org/2000/svg" viewBox="0 0 100.73 109.37">
  <g id="Layer_1-2" data-name="Layer 1">
    <path id="_28" data-name="28" d="M.94,43.35l.55,3.27c.65.09,1.57-2.01,1.72-2.05.52-.15,1.66.99,2.39-.1l.79-7.11c-.06-.07-1.38.54-1.63.96s-.24,2.88-1.1,2.04c1.87-8.8,5.24-16,10.7-23.1C17.53,13.1,27.24,2.3,31.75.83c.28-.09.89-.15.8.26l-1.35,2.46c1.38-.11,2.68-1.27,3.94-1.51,18.33-3.46,35.43-3.92,49.21,9.95,15.68,15.78,16.78,34.05,16.29,55.01-.23,9.92-13.9,27.73-20.92,34.69-7.88,7.82-18.22,6.12-28.34,6.54-2.04.09-4.51,1.12-6.55,1.13-7.65.03-18.1-5.63-24.21-10.18C10.82,91.9,2.7,77.25.55,65.27c-1.32-7.36.08-14.52.39-21.92ZM78.34,100.6c-1.55-.01-2.13,1.64-3.31,2.41-1.05.68-3.22.49-3.77,2.49l3.79-1.38,3.29-3.52Z"/>
  </g>
</svg>