<?xml version="1.0" encoding="UTF-8"?>
<svg id="Layer_2" data-name="Layer 2" xmlns="http://www.w3.org/2000/svg" viewBox="0 0 132.03 130.86">
  <g id="Layer_1-2" data-name="Layer 1">
    <path id="_29" data-name="29" d="M88.89,0c.34,2.94.86,1.59,2.01,2.05.59.23,1.17,1.09,1.64,1.16.91.13,1-1.38,4,.43,1.68,1.01,3.47,2.42,5.43,3.14,1.09.4,1.83-1.31,2.2,1.95l2.17-1.09c-.11,2.34,3.36,3.15,2.73,6l2.72-.55-.54,2.72,1.63-.54.07,1.56,1.57.09-.97.61c.57,1.59-.34,2.78-1.75,3.48l1.92,1.37,2.44-2.18-.54,2.17,2.18-.54c-.13,1.01-.06,1.82,1.09,1.65l-1.09.54,1.1,1.89-1.64,1.37c4.31-.71,3.47,8.71,8.71,4.91l-1.63,1.91,1.64.27c-.91,2.32,1.17,4.12-2.73,3.82-.17,1.38-.02,1.43,1.1,1.9l-1.64,1.91,1.96.53c-.55,2.25.35,1.36.99,2.24.81,1.1-.5,2.42,2.49,1.05.28.21.73,6.37-.54,6.82l1.09.54-2.18,1.09,2.72,3.54-1.63.28,1.09,1.36-1.09.54,1.12.31-.59,1.6,1.64.29c.24.88-.79.39-.92.64-.73,1.44,1.61,3.06,3.1,2.08.46,1.96-1.56.63-2.12,1.17-.17.16.03,1.01-.24,1.34-1.08,1.31-2.43,2.41-2.95,4.31.09,1.1,3.18,1.97,4.23,1.91-.98.74-.68,2.33-1.05,2.89-.59.88-1.89-.4-.04,2.55l-1.09.54h1.08s0,1.09,0,1.09c-1.5-.21-1.12,1.01-1.08,2.19l-1.08-.55v2.73s-1.64.28-1.64.28l1.09.81c-1.22.22-4.39.25-5.16,1.07-.15.16.06.81-.12,1.12-.36.61-1.39,1.15-1.25,1.86.17.86,1.87,1.22,2.05,1.5.07.11-.44,1.53.13,2.09h-2.19c.72,2.93-1.22,3.25-1.62,5.75l-2.19-.29,1.08,1.35-1.63,1.36,1.63,1.09c-2.93-1.18-3.22,1.09-4.5,1.94-.55.36-1.04.67-1.67,1.12s-1.53.4-2.07.99c-.72.78,1.21,3.26-2.1,3.06,1.14,1.26-.94,2.46-.49,3.2.05.08,2.24.41.2,1.13-1.26.44-.52-1.05-1.08-1.09l-1.09,1.64-.54-1.09c-.91,1.45-2.12.48-3.54.55-.33,2.18,1.8,1.08.49,3.49l1.14.86c-1.05.37-1.8-.78-2.47-.86-1.07-.13-2.44,2.28-4.06-.77l-.54,1.41-1.61-.29-.62,1.81,1.67,1.42-2.94.59-1.42-1.13.54,1.63c-.73-.5-2.13-1.16-2.98-.95-.1.02-1.71,1.03-1.78,1.11-.35.38.02,1.15-.48,1.55-.17.14-4.1,1-4.31.95-.4-.1.07-1.54-1.35-1.02l-.05,2.13c-.82.31-2.84.24-3.29.95-.49.78.64,2.11-1.02,1.83v.53c2.4-.17-.28,2.36-.56-.54l-1.62,1.08-.1-.92c-1.17.08-2.14.23-2.1-1.25l-1.08,1.63-.56-2.72c-2.2-.1-2.01,1.36-3,2.73l-.81-1.09-.28,1.66c-.68-.05-1.48.12-2.11-.09-.96-.33-.5-1.67-1.42-1.56v2.18c-6.05-2.76-13.02-1.8-19.39-3.79-3.44-1.07-11.61-5.63-14.37-7.98-3.58-3.05-6.76-8.64-10.39-11.96l-1.64.83,1.08-2.18-1.64-.29.47-1.28c-.6.05-1.8-2.13-2.05-2.66-.85-1.81-1.52-4.28-2.5-6.15l-1.9.02,1.08-1.63c-1.83.28-.77-1.41-1.1-2.35-2.04-5.8-6.31-11.57-8.64-17.63C.75,72.62,0,70.69,0,69.48c0-.95.96-.67,1.1-1.18,1.41-5.29,1.15-9.92,1.74-15.07.96-8.34,13.08-32.66,21.48-35.23.28-.09.89-.15.8.26-1.25,1.44-2.87,2.63-4.09,4.09-.36.43-1.43,1.09-.54,1.64.92-.41,1.73-1.48,2.5-1.87,5.41-2.76,11.71-4.5,16.81-8.25,3.58-2.64,6.23-6.35,10.68-7.85,2.1,2.19-2.64,2.78-4.38,3.78-1.13.65-2.11,1.51-2.98,2.47-.08.41.53.35.8.26,2.91-.94,6.63-5.3,10.1-5.45l-.55-1.08c2.83,1.03,7.15-3.49,9.27-.55-2,.3-4.46-.13-4.91,2.18.53.4,5.42-1.07,6.41-1.47,2.43-1,8.2-2.43,11.35-2.84,1.66-.21,6.96.42,7.75-.74.5-.73-.71-1.98,2.01-1.48l-.27-1.09h3.81ZM7.68,45.27l-.55-1.38c-2.13,2.85-1.75,6.01-2.76,9.19l1.4.88c2.77-2.87,1.65-6,2.99-9.25l-1.08.56ZM3.86,71.98l-1.63-6.54c-.19,2.68-.49,4.95,0,7.63l.54-1.64,1.08.56Z"/>
  </g>
</svg>