<?xml version="1.0" encoding="UTF-8"?>
<svg id="Layer_2" data-name="Layer 2" xmlns="http://www.w3.org/2000/svg" viewBox="0 0 111.65 100.82">
  <g id="Layer_1-2" data-name="Layer 1">
    <path id="_3" data-name="3" d="M96.02,21.91c.94,1.17,2.96,3.42,3.59,4.3,1.25,1.74-.17,1.31,1.92,2.53,2.97,1.73,1.61,2.59,3,4.03.74.76,3.16-.35,2.07,1.47l2.05,2.02-2.18.28,1.64.54v1.36s-1.09-.27-1.09-.27l.53,1.39,1.64-.3-.06,3.79-1.58.03c.41,1.27.18,2.69.33,3.87.05.37.24,1.62.76.76v-4.08c2.52.05,1.46,3.46,2.19,5.13l-1.09.86,1.64.28-1.63,1.64c4.26,2.32.22,4.41-.71,6.4-1.02,2.17-1.45,5.55-2.54,7.81l1.06.77c-2.31-.49-2.3,2.8-3.82,4.1l1.09.27-.54.83-1.63-.29c-.17.19.46,1.05.24,1.65-.67,1.82-5.22,6.55-6.5,8.74-.39.66.1,2.66-1.92,3.51,2.82.16-2.86,3-3.33,3.23-1.42.69-4.86,1.36-5.39,1.67-.25.15-3.36,3.21-3.25,3.85-2.16-.71-1.44.54-2.53,1.26-2.21,1.46-4.06,2.29-6.49,3.34l-1.06-1.59-2.75,1.6-.51-1.09c-1.92.38-3.58,2.52-4.49,2.61-4.87.46-14.87,1.04-19.52.16-.34-.06-4.72-1.58-5.31-1.82-1.6-.65-2.52-1.91-3.56-2.55-1.22-.75-3.84-.22-3.95-2.76l-1.61,1.09c-.21-1.99-2.13-2.17-3.8-2.22v-1.34c-3.15-.08-5.82-4.17-9.3-4.08l.34-1.65c-3.83-.73-2.82-2.29-4.11-4.11-1.92-2.68-3.37-.37-6.22-6.61-.11-.24-.9-.23-1.21-1.21-.72-2.26.54-4.85-2.41-5.52l.06-1.03,1.04-.38c.57-1.98-.91-1.83-.96-1.95-.14-.34.48-1.07.29-1.67-.42-1.29-1.79-2.53-1.53-4.24l-1.08-.54c.93-.23,2.94.71,2.71-.8-.1-.66-.53-1.25-.54-1.93l-1.09,1.63c-2.5-1.03-.99-3.44-1.2-4.57-.17-.91-2.21-1.59-1.54-4.35l2.2-.35c.61-1.11-.9-2.61-.9-3.01,0-.54,1.25-.92.9-1.9l-1.09.27v-.81s.95-.11.95-.11l-.29-.91.98-.62-1.08-1.1c1.82,1.2.69-.34,1.34-1.09.5-.58,1.25-.53,1.93-.55l-1.64-.54.55-3.82,1.63.55.55-1.64-1.63-.27c.31-2.67,1.89-2.65,2.48-3.57.32-.51-.28-1.16-.14-1.53.05-.13.75-.08.84-.36.32-.98-2.18-2.96.08-3.55l.27,1.63c2.19-.53.94-3.29,3-3.28-2.83-1.76-1.23-2.98-.72-5.27.34-1.52-1.31-1.87,2.35-2.96l-.54-1.58,1.56-.06c-.32-3.52,2.68-2.3,4.99-3.77l-2.17-1.08h2.72s-1.63-1.37-1.63-1.37c.47-1.06,1.81-.32,2.2-.57.79-.5,1-2.69,2.15-3.25.45-.22,5.06-.22,5.64-.1,1.09.22,2.25,1.98,3.63,2.02l-2.72,2.17,4.36-1.1-.54-1.06c1.46-.59,4.73-1.25,5.86.11.42.5-.08,2.06.94,2.6.58-2.34,2.24-2.59,1.59-4.91l1.69-1.08c-.57,2.61,1.23,3.56,3.57,3.52,4.73-.09,9.66-1.69,14.42-1.88,6.76-.27,16.16.26,22.22,3.39,4.62,2.39,6.39,5.39,8.67,9.87,1.25,2.45.99,5.11,3.46,6.94.49.36,1.21-.02,1.27.06Z"/>
  </g>
</svg>