<?xml version="1.0" encoding="UTF-8"?>
<svg id="Layer_2" data-name="Layer 2" xmlns="http://www.w3.org/2000/svg" viewBox="0 0 89.89 83.31">
  <g id="Layer_1-2" data-name="Layer 1">
    <path id="_4" data-name="4" d="M6.84,16.77c-.02.08.37.44.3.8-.18.9-2.26,4.37.28,4.43,2.09-.05,1.66-1.82,2.65-2.82,1.5-1.51,4.97-4.17,6.86-5.69,1.32-1.06.64-2.36,4.07-1.63l-.43-1.37.73-.76c2.36,1.24,2.02-.81,2.98-1.41.28-.18,5.53-2.6,5.96-2.76,1.72-.6,4.83-.63,6.57-1.61,1.04-.58.2-.67-.08-1.03-.84-1.06-2.82-2.57-1.56-.35-1.75.9-4.04.19-5.62.66-.72.22-1.07,1.2-1.72,1.3-1.85.31-4.44.21-6.39,1.34-1.02.59-2.14,2.52-4.25,2.46l-.98-1.2.47-1.82c2.04,1.07,1.74-.66,2.3-.93,1.29-.64,3.65-1.09,5.09-1.82l1.85,1.1c-1.26-1.66,3.81-2.95,5.24-3.25,4.44-.94,16.96-.22,21.06,1.22.8.28,1.23.92,1.78,1.49V.96c1.42,2.2,3.38,1.56,5.66,1.69.98,1.56-.42,2.24-.48,3.76h3.27s-1.63-1.91-1.63-1.91l3.27.28c.26.37-2.67,4.19,1.08,1.63l.54,1.4c.6.4,1.29-.28,1.85-.16,1.26.27,5.9,2.29,7.28,2.48.98.13,1.69-.65,2.84-.18,3.27,1.32,2.06,4.05,2.79,5.17.09.14,1.78-.72,2.69,1.39.99,2.32-2.82-.75-3-.82-2.13-.84,1.22,4.57,3,2.72l-.54,3.27,1.37-.05,1.93,6.57,1.04-.52c.94,1.3.46,5.21.83,5.98.34.71,1.41,1,1.74,2.01.24.73.05,3.35-.92,3.74,1.71.47,1.71,2.79,0,3.26,1.34,1.07,1.96,3.91,0,4.37l1.09.81-1.03.24-.06,5.22-1.63-.54c-.08,2.68-1.99,5.5-3.35,7.85-.32.56-1.03.63-1.23.85-.36.4,0,2.86-1.97,3.57,2.09.38,3.42-2.93,4.44-4.28.38-.51,1.1-1.71,1-.09-1.99,3.02-4.64,6.6-7.35,9.01-.77.68-1.88.98-2.76,1.62-.52.38-.72,1.54-1.06,1.66-.59.2-1.59.28-1.35-.82.4-1.86,4.59-2.77,5.44-5.47.09-.4-.57-.37-.81-.26-1.34.61-3.68,3.03-5.74,3.97-2.88,1.32-7.34,2.29-10.3,3.42-2.38.91-4,3.08-6.59,1.87.32,1.17,1.45,1.13,2.42,1.11,4.03-.09,7.7-3.83,11.75-2.74-1.27,1.18-3.66,1.94-5.33,2.62s-3.45.38-4.76,2.28l-.59-1.12-3.78,1.18c-2.55-2.94-3.83.55-5.4,1.14s-3.49-.55-5.21.44c-.23,1.81,7.36-.31,5.45,1.62l-4.07,1.12c-.48-1.67-3.74-1.61-5.45-1.69-3.71-.17-6.81.79-9.98.18-1.37-.27-3.71-.55-5.02-.92-4.98-1.41-10.83-4.78-13.09-9.58,3.08-.63,2.57,1.61,3.66,2.75.77.81,6.03,4.58,6.99,4.86,1.65.48-.59-1.45,1.07-1.08,1.16,1.86,5.61,3.83,7.36,1.65-.9.03-1.77-.1-2.62-.38-4.81-1.6-9.99-5.11-13.86-8.34-.7-.59-.98-1.64-1.78-2.19l-.55,1.64c-2.32.15-3.44-5.2-4.38-6.52-.64-.91-2.18-1.3-2.37-2.02-.2-.75.6-1.71.42-2.54s-1.7-1.38-1.99-2.4,0-2.26-.36-3.46c-.67-2.23-2.89-5.29-3.46-7.99-.25-1.15-.34-1.43.97-1.25l2.18,5.45c.56-2.29-.58-5.9-.38-7.83.08-.79.9-1.55.97-2.8.05-.84-.51-6.25-1.4-6.26-2.61,2.78-1.18,7.35-1.37,10.89C-.05,42.64-.08,37.87.05,36.31c.23-2.64,2.29-5.63,2.85-7.94.79-3.3.32-8.18,2.81-11.26.49-.61.81-.22,1.13-.34.62-2.22,3.17-7.44,5.99-6.53-.38-1.29.6-3.62,2.19-2.73.14.08-.38,2.73-.7,3.11-.79.96-4.87,3.18-5.04,3.43-1.15,1.73,1.15,1.4-2.44,2.72ZM79.89,54.93l-.28-1.63c-.51.26-2.31,4.71-.54,3.4l.27,1.5c1.38-.82,2.65-3.42,1.9-4.9l-1.36,1.63ZM84.24,56.02c-.31-3.13-2.83,2.31-3.82,3.53-1.9,2.33-4.29,4.32-5.98,6.82,4.01-1.77,7.26-5.97,9.81-9.54l-1.09-.81h1.08Z"/>
  </g>
</svg>