<?xml version="1.0" encoding="UTF-8"?>
<svg id="Layer_2" data-name="Layer 2" xmlns="http://www.w3.org/2000/svg" viewBox="0 0 105.02 107.99">
  <g id="Layer_1-2" data-name="Layer 1">
    <path id="_5" data-name="5" d="M46.77,1.86c.32.23-.12,1.1.71.88l.62-2.12c2.5,0,4-.35,5.67,1.58.08-1.42,2.51-1.16,3.82-.99.46.06,2.56,1.61,3.07,1.95.22.14,4.22.45,4.97.66.59.17.67,1.38,1.62,1.8,1.3.57,4.02-1.4,2.6,2.56.18.18,1.24-.46,1.83-.38,2.46.34,7,4.78,9.43,6.29,3.6,2.23,5.53,1.18,9.71,5.01,8.9,8.17,14.83,24.19,14.16,36.04-.26,4.53-.32,12.79-2.51,16.47-6.64,11.13-9.16,17.97-20.35,25.99-4.7,3.37-24.43,10.32-30.01,10.38-2.67.03-5.19-1.12-7.59-1.39-4.55-.52-11.55-.57-15.55-3.26-1.47-.99,1.2-1.65,1.91-.83.56-.11.34-.73.01-1.09-1.4-1.55-8.09-3.59-10.26-4.9-2.28-3.72-7.65-5.68-9.95-8.7-.51-.68-4-6.41-4.08-6.82-.06-.3-.14-.9.28-.82.42.73,3.93,4.49,4.64,3.81.14-2.17-2.17-3.21-2.49-4.3-.5-1.7-1.21-4.47-.78-6.05-3.59,1.18-4.66-1.73-4.35-4.91l.86,1.13,1.86-.86c-.61-1.27-2.72-1.48-3.31-2.28-1.26-1.74-.37-5.17-2.69-6.45l.98-.35-.43-1,1.63-.27L.06,55.36c2.88-.59,3.61-3.95,3.33-6.57-.13-1.19-.61.37-.6-2.68,0-1.78-.23-5.64.1-7.12.08-.35.96-.24.95-.49-.13-3.48-4.75-5.24-3.68-8.66.38-1.22,10.55-7.35,12.46-9.36.41-.43,3.97-5.08,4.27-5.54C21.21,8.25,20.3-.11,31.37,1.69c1.28.21,2.99,1.67,3.77,1.52S37.75.31,40.18.03c1.83-.21,5.09.76,6.59,1.83Z"/>
  </g>
</svg>