<?xml version="1.0" encoding="UTF-8"?>
<svg id="Layer_2" data-name="Layer 2" xmlns="http://www.w3.org/2000/svg" viewBox="0 0 105.45 104.17">
  <g id="Layer_1-2" data-name="Layer 1">
    <path id="_6" data-name="6" d="M58.09,2.75l1.35-1.63.81,1.8c1.35,1.48,1.66-1.3,3.28-.71L62.98.03l1.35-.03.84,1.4-1.09,1.35,2.17-1.09,1.1,3.27,1.09-.4c.32-3.45,1.47,1.87,3.49-.15.56,1.41,2.61,2.07,3.35.53.41-.86-1.09-1.84.51-1.61l.29,2.72c2.07-.99,2.25,1.09,3.29,1.83,3.18,2.28.86.81,1.86,2.51.19.32,4.26,3.02,4.66,2.19-.31,1.79.61,2.19,2.18,1.64v2.73s4.36-.54,4.36-.54l-1.08.8c.44,1.48,2.19,2.67,2.37,3.15.37.99-.23,1.92-.17,2,.16.21,1.73.28,2.08.65.14.14.04,2.55.67,3.86.34.71,3.74,3.7,4.17,4.9.17.48-.77,3.57.1,4.95,1.09,1.72,3.41.26,2.78,2.31-.06.21-.88.23-.96.4-.26.5,1.43,7.56,1.88,8.47.63,1.28,2.25-.06.15,3.13l1.06.51c-.89,2.26,0,3.82-1.6,5.92-.41.53-1.05.36-1.08.41-.18.32.67.7.75,1.07.21,1.08-.79,1.39.89,1.91-2.27,1.81.21,5.93-2.72,6.83l1.08,1.62-1.66.28,1.12,3.54c-1.6-.22-1.68.04-1.75,1.53l-1.53.11.48,2.12-1.45.84.42,1.95-1.08-.55c-.2,4.3-1.36,2.52-3,3.82-1.19.94-.82,2.55-.93,2.64-.42.32-1.69.05-2.07.91l.82.82c-1.4.74-2.71.84-3.09,2.65l-.99-.47c.11,2.87-1.59,2.55-2.2,3.09-2.4,2.14-4.95,3.74-7.35,5.61-2.58,2.01-5.53,1.39-8.22,2.3-.35.12-.24.68-.25.98l-.81-1.08c-1.15,2.56-1.25.91-2.6,1.18-.89.18-1.45,1.02-2.32,1.26-.77.21-2.78-.22-2.9-.13-.26.18-.27,1.26-.96,1.47-1.19.37-5.51-1.38-6.49-1.37-.32,0-.78.66-1.08.63-.86-.08-2.73-1.07-3.83-.75-.37.11-.15,1.02-.54,1-.62-.02-3.56-1.63-4.35-1.62-1.55,0-2.22,2.04-4.09-.03l-.54,1.09-.53-1.95c-2.38.66-3.2.31-4.93-1.32.96,3.44-4.32-.14-5.43-.86-2.01-1.3-4.52-3.86-6.33-5.64-.41-.41-.75-1.09-.79-1.68l-1.08,1.08c-.02-2.09-2.76-3.69-4.2-5.1-.23-.22-.06-1.01-.31-1.26-1.78-1.82-4.18.1-5.19-4.93-.14-.68.43-1.61.36-1.72-.09-.15-1.19-.27-1.61-.82-1.15-1.51-2.05-4.28-3.67-6.45-.16-.21.26-2.5-.11-3.14l-1.08.55-2.73-8.46c-.17-.49.9-.07,1-.52.05-.21-.44-4.09-.5-4.3-.77-2.43-.7-.72-1.05-4.42-.12-1.33-2.48-2.54,0-3.29-3.5-2.5.71-4.51,1.02-5.53.19-.64-.4-3.41-.16-4.62.13-.66.91-1.2,1.06-1.84.34-1.39-.58-3.81,1.88-4.1v-1.09s-1.09.27-1.09.27c-.17-.94,1.13-1.28,1.36-1.87s-.37-1.36-.29-1.86,1.68-.08,1.12-1.43l-1.63-.85c.52-2.82,3.27-3.58,5.44-1.89v-2.18s2.18.54,2.18.54l-.5-1.55c1.99-.07,2.12-3.3,2.84-3.78.4-.27,1.21,0,1.46-.15.06-.04-.38-.89-.12-1.45.45-.98,1.42-1.04,1.81-1.63.45-.69.38-1.82,1.04-2.64,1.03-1.28,3.75-1.26,3.85-3.51l1.08,2.17.55-3c.84-.66,1.06,1.97,1.63,1.37.06-.06.09-.83.59-1.3.67-.63,3.03-3.01,3.53-3.08.73-.11,1.57.39,2.18.32,1.32-.14,2.17-1.61,3.8.25.52-1.96,3.47-1.51,3.54.54l1.9-1.11,2.44,1.65.11-.93c1.5.36,1.72-2.04,4.25-.7.18-1.47.08-1.42-1.09-1.91,1.48-1.71,2.59.29,3.55.29.47-1.81,1.71-.25,3-1.66.02,1.09-.43,1.94,1.09,1.64V.02c.87-.18.53,1.01,1.06,1.36.44.29,2.21-.89,2.22,1.36Z"/>
  </g>
</svg>