<?xml version="1.0" encoding="UTF-8"?>
<svg id="Layer_2" data-name="Layer 2" xmlns="http://www.w3.org/2000/svg" viewBox="0 0 104.44 111.22">
  <g id="Layer_1-2" data-name="Layer 1">
    <path id="_7" data-name="7" d="M40.96,1.52c1.46.9,2.97-.12,4.55-.33.51-.07,1.17.47,1.59.46.46,0-.03-1.69,1.4-1.1l-.28,1.63,2.19-1.63.52,1.09,2.47-1.09v1.64c1.25-.15,4.08-.68,5.16-.52,1.44.22,2.56,2.38,3.29-.03,1.47,1.34,2.11,1.22,3.55,0,.53,1.96-.96,1.47-1.63,2.72l4.36-1.09c-.47,2.05.87,1.43,1.17,1.7.63.57.32,1.13,1.01,1.02l-.54-2.17h1.08c.26,3.27,4.63,1.42,4.48,4.25l1.53.11-.55,1.63h1.64c-.63-2.8,1.71-1.37.55,1.09,1.03-.39,3.46-.6,4.28.07.07.06-.43.89.03,1.29,1.44,1.25,3.81,0,3.81,2.75l2.24.26c-1.5,1.27.04,2.61-1.63,2.99.78.94,2.65,1.66,2.93,2.97s-.77,3.67-.06,4.81c.13.21.85.29,1.17.73s.22,1.21.42,1.47c.11.15,3.14-.24,1.76,2.3h-1.86c-.29,2.21,1.68,5.44,3.76,4.42.71,1.94,3.1,1.13,2.79,4.29l1.64-1.63c2.99,1.2.84,3.78.79,5.19-.01.31.5.68.54,1.07.17,1.81.93,7.89,1.65,9.51.54,1.21,2.5,1.72,1.37,3.85-.4.31-4.78-3.3-4.9,0h2.73s0,1.64,0,1.64l-1.62.27,2.7,1.09-.98,2.39.99.6-1.13.34.56,3.15-1.61,1.15,1.06.3-.48,1.54,1.61,1.15c-3.76.28-1.82,2.14-2.17,3.99-.07.38-1.59.47-1.62,2.31-.02.84.56,1.65.54,2.11-.02.34-.99.22-1.06.66-.22,1.33.8,1.3-1.64,2.65l1.02,1.09c-1.81,1.01-2.14,1.91-2.66,3.86l1.05.47c-.49,1.43-.78,2.07-2.17,2.76l2.72,1.9-2.45,1.64c-.53-.74.06-1.38-1.35-1.09-.3.64-1.03,3.58-1.21,3.72-.47.38-1.7-.4-1.52.63l3.27.55c-1.38-.23-4.38.77-4.36,2.45l1.09.82-2.45-1.08c-.85,2.12-1.41,1.08-1.78,1.25-.39.18-.09,1.48-2.85.38l.54,2.17-1.08-1.81-1.65-.36,1.09,2.17-3.27-1.08,1.63,1.62c-2.12-.32-7.66.71-9.42,1.65-.41.22-.44.66-.4,1.07l-1.88-2.15c-2.94,2.4-3.89.78-6.25.2-3.21-.79-2.82,1.89-3.57,1.94-.2.01-1.97-1.46-3.72-1.1-1.15,1.03-1.01,2.82-.54,4.15l-1.46.79c.79-1.55-.88-2.34-1.1-3.81l-1.36,1.62c-1.48-.85-.86-1.78-1.34-3.01-.16-.11-1.86-.18-1.94-.14-.51.22.11,1.2-.79.97v-3.27s-.85,1.12-.85,1.12l-1.88-.58.71,1.63c.99.98-1.59,1.36-2.23.41l-.94-2.59-1.35,2.72c.02-2.65-2.6-2.02-3.55-4.36l-.28,2.18-.54-2.17c-2.2-.53-.39,2.06-.54,2.17h-2.18s1.09-1.63,1.09-1.63l-1.64,1.08-1.38-1.07-1.06,1.08-1.29-.64-.09-2.09-.81,1.09c-2.16-1.38-1.23-3.05-4.64-2.73l.55-1.08-1.63.55c.02-.73-.09-1.32-.55-1.92-.76-.99-.29,1.24-1.09.82-1.16-2.25-2.92-5.04-5.46-3.82l.55-1.63-2.73-.55.55-1.63c-1.44.43-2.85-.84-3.82-1.89-.79-.86-2.1-3.53-2.88-4.5-.9-1.11-2.62-.85-2.11-3.89l-2.05-.95-.05-1.85,1.08,1.63-.06-2.93-2.11-1.15c.45-1.13,2.31.54,1.65-1.65-.43-1.44-1.64-1.2-1.7-1.69-.13-1.07,1.66-2.56-.49-2.39l1.63-1.09-1.64-.54c-.14-1.16-.04-1.18,1.09-1.1-1.7-1.66-.21-1.93,0-3.8l-1.63,1.63,1.08-8.17-1.61-.27c1.68-2.2-.73-4.47,2.16-5.46l-1.11-.55c1.73-1.75.12-4.2.74-5.91.19-.53,1.8-4.3,1.95-4.5.53-.71,1.9-.47,1.68-1.3-.27-.02-.84.04-.95-.1-1.67-2.19,2.44-.75,2.6-2.92-1.42-.13-1.34-4.78.04-4.95-1.15-2.48.15-1.47.92-2.78s.81-3.34.93-3.48c.46-.54,1.61-.33,1.84-.6.55-.68.51-3.02.64-3.14.56-.5,3.62-.18,2.19-3.27l2.15-.6-.52-1.04c2.97-.39,3.55-4.38,7.08-3.85l-.53-1.88.83-.82c3.14,1.57,2.75-.42,3.91-1.17.93-.61,2.84.47,2.89-3.22l2.17,1.08-1.06-1.4.78-1.3,1.65,1.06c.2-.02,1.3-2.2,2.45-2.43.67-.14,1,.61,1.36.6.95-.04.84-2.02,2.18.76l1.64-2.18.36,1.52Z"/>
  </g>
</svg>