<?xml version="1.0" encoding="UTF-8"?>
<svg id="Layer_2" data-name="Layer 2" xmlns="http://www.w3.org/2000/svg" viewBox="0 0 96.86 98.01">
  <g id="Layer_1-2" data-name="Layer 1">
    <path id="_8" data-name="8" d="M78.04,13.31l-.82-2.72c5.14,4.05,9.91,9.01,12.91,14.9,2.05,4.02,5.55,15.22,6.3,19.87,6.06,37.56-52.55,71.08-78.13,41.04-.3-.35-2.57-1.04-.91-1.67h1.24c-.66-1.69-1.58-6.12-3.85-5.14-.21-3.01-1.85-2.46-2.56-3.19-.24-.25-.02-1.08-.29-1.31-.67-.57-2.94-1.05-3.35-1.81-1.34-2.43.21-3.32.2-3.54s-3.06-2.42-3.46-3.04c-.59-.91-2.12-4.21-2.72-5.46C-2.32,50.99.36,38.69,5.52,28.72,12.49,15.23,21.73,6.78,36.08,1.6c12.53-4.52,23.76,1.34,34.71,7.25.96.52,6.84,4.9,7.26,4.46Z"/>
  </g>
</svg>