<?xml version="1.0" encoding="UTF-8"?>
<svg id="Layer_2" data-name="Layer 2" xmlns="http://www.w3.org/2000/svg" viewBox="0 0 104.24 103.65">
  <g id="Layer_1-2" data-name="Layer 1">
    <path id="_9" data-name="9" d="M57.8.76c.11.05.09.72.21.75.7.19,2.62.26,2.08-.89h.53c.25,1.85,1.52,2.4,3.28,2.17l.26-1.62,2.74,2.71,1.89-1.63c.29,2.08,2.76,1.75,3.59,3.79l2.41-1.06-1.08,2.18c1.06.32,1.48-1.15,2.36-1.02.19.03,2.72,1.76,3.24,2.13.9.64-.26,1.38,2.58.53l-.55,1.07c1.59.22,2.5.4,2.19,2.19.14.15,1.32-2.05,3.28.43,1.01,1.27.46,2.23.83,2.81.48.77,2.93,2.09,3.05,3.78l2.1-.49c.49.56-2.01,1.83.17,3.66,1.72,1.45.97.41,2.53,2.48.86,1.15,2.12.37,1.13,3.12l1.08-1.08,1.64,3.81-1.63,1.09h2.72s-.54,2.18-.54,2.18c2.51-.24,2.65,2.14.54,3.26,2.17.46,3.11,6.3,2.18,8.18h1.65c-2.38,2.32,1.09,3.64-1.05,4.05-.06,3.08-.2,6.45-.3,9.89-.03,1.09-1.4,1.43.25,2.96h-2.72s1.11.85,1.11.85c-.55.95-.33,2.22-.61,3.11-.2.65-1.7.01-.55,2.52l-2.69,1.98,1.09.54c-1.12.45-.72,2.27-1.01,2.67-.51.7-1.94.01-2.55.85-.31.44-.12,1.4-.38,1.82-.46.74-1.21.88-1.31,1.05-.2.36.01,1.58-.7,2.24-1.16,1.07-1.64-.59-1.81,2.99-2.46-.24-.86,1.75-2.36,2.78l-1.86-.51c.11,1.27-.34,1.92-1.52,2.29l.41.95c-5.97,1.8-12.13,8.18-17.91,10.1-1.23.41-3.79.79-4.99,1.14-.65.19-1.44,1.27-2.42,1.59s-6.83,1.1-8.1,1.18c-2.08.13-5.04-1.87-5.83,1.27-2.12-2.04-3.27-1.04-5.09-1.23-.72-.08-1.32-.9-2.16-.84-1.65.12-1.33,2.24-2.78-.52l-1.57.47c-1.22-2.6-1.78-1.13-3.3-1.32-.85-.11-5.51-1.14-5.76-1.5l.52-1.04-3.24-.04-.04-2.14-1.58.49-.58-1.36-1.65.32v-2.19c-.57.22-1.23.4-1.78.05-2.48-1.55-4.29-3.67-5.81-5.79-.41-.57-1.47-.56-1.86-1.48-.94-2.16.76-2.46-2.85-3.11l.32-2.2-1.55-.07c.37-2.68-1.47-2.49-2.18-3.3-.14-.17.52-3.87.36-4.43-.2-.71-1.09-1.04-1.28-1.51-.47-1.14.02-.51-.8-1.97-1.35-2.41.32-2.89.34-3.72.01-.39-.94-1.3-1.1-2.03-1.19-5.39-1.37-11.95-.28-17.51.08-.43.87-.32.99-.72.33-1.16-.59-4.83-.43-5.03s1.03-.15,1.38-.84c.25-.51-.36-2.08-.21-2.39,2.24-4.57,4.57-8.35,7.41-12.97,1.16-1.89.52-4.58,3.9-4.04l-.03-2.44,1.93-.81-.26-1.66,1.36,1.08c1.4-.62.19-2.09.27-2.16.11-.1,1.49-.06,2.05-.37.74-.41.77-1.09,1.27-1.47,1.2-.91,2.89-.58,2.7-3.07l1.64.33,1.04-2.29c2.39.47,3.15,0,5.06-1.3,2.45-1.66,4.33-2.01,7.64-2.87,1.39-.36,2.8.25,3.96-1.49l1.9,2.17-.26-1.64,1.88-.05.32-1.62c2.92-.32,5.43,1.86,8.32,1.56,1.2-.13,2.69-1.1,3.28-.83Z"/>
  </g>
</svg>